<svg width="285" height="30" viewBox="0 0 285 30" fill="none" xmlns="http://www.w3.org/2000/svg">
<path d="M11.4219 8.03125L4.55469 22H0.78125L9.89844 4.9375H12.3125L11.4219 8.03125ZM12.7812 22L10.6953 7.66797L10.8242 4.9375H13.0859L16.3086 22H12.7812ZM13.6484 15.6484L13.168 18.4023H4.39062L4.87109 15.6484H13.6484ZM30.9711 19.2578L30.5023 22H18.7484L19.2289 19.2578H30.9711ZM32.9164 7.04688L20.3773 22H17.8578L18.2445 19.832L30.8422 4.9375H33.2914L32.9164 7.04688ZM32.1195 4.9375L31.6391 7.69141H20.3422L20.8344 4.9375H32.1195ZM46.0555 11.8867L45.575 14.6289H36.9148L37.3953 11.8867H46.0555ZM39.6336 4.9375L36.6688 22H33.2352L36.1883 4.9375H39.6336ZM49.6883 4.9375L46.7234 22H43.3133L46.2664 4.9375H49.6883ZM55.1398 4.9375L57.2375 12.6953L62.0305 4.9375H65.9328L58.4797 15.9531L57.4484 22H53.9562L55.0695 15.6133L51.5187 4.94922L55.1398 4.9375ZM72.6734 15.9297L68.2555 15.918L68.7359 13.1758L72.7906 13.1875C73.3688 13.1875 73.9 13.0859 74.3844 12.8828C74.8688 12.6719 75.2672 12.3672 75.5797 11.9688C75.8922 11.5703 76.0914 11.0703 76.1773 10.4688C76.2555 9.96094 76.2281 9.50391 76.0953 9.09766C75.9625 8.69141 75.7281 8.36328 75.3922 8.11328C75.0563 7.86328 74.6227 7.72656 74.0914 7.70312L70.8922 7.69141L68.4078 22H64.9742L67.9273 4.9375L74.1969 4.94922C75.2828 4.97266 76.2516 5.20703 77.1031 5.65234C77.9547 6.08984 78.6109 6.71484 79.0719 7.52734C79.5406 8.33203 79.7281 9.30469 79.6344 10.4453C79.5328 11.6875 79.1461 12.7148 78.4742 13.5273C77.8023 14.3398 76.9547 14.9453 75.9313 15.3438C74.9156 15.7344 73.8297 15.9297 72.6734 15.9297ZM87.8281 8.03125L80.9609 22H77.1875L86.3047 4.9375H88.7188L87.8281 8.03125ZM89.1875 22L87.1016 7.66797L87.2305 4.9375H89.4922L92.7148 22H89.1875ZM90.0547 15.6484L89.5742 18.4023H80.7969L81.2773 15.6484H90.0547Z" fill="white"/>
<path d="M11.4219 8.03125L11.8257 8.22978L11.8433 8.19403L11.8543 8.15574L11.4219 8.03125ZM4.55469 22V22.45H4.8349L4.95853 22.1985L4.55469 22ZM0.78125 22L0.384357 21.7879L0.0305833 22.45H0.78125V22ZM9.89844 4.9375V4.4875H9.62868L9.50154 4.72542L9.89844 4.9375ZM12.3125 4.9375L12.7449 5.06199L12.9103 4.4875H12.3125V4.9375ZM12.7812 22L12.3359 22.0648L12.392 22.45H12.7812V22ZM10.6953 7.66797L10.2458 7.64675L10.2438 7.68997L10.25 7.73278L10.6953 7.66797ZM10.8242 4.9375V4.4875H10.395L10.3747 4.91628L10.8242 4.9375ZM13.0859 4.9375L13.5281 4.85398L13.4589 4.4875H13.0859V4.9375ZM16.3086 22V22.45H16.8515L16.7508 21.9165L16.3086 22ZM13.6484 15.6484L14.0917 15.7258L14.1837 15.1984H13.6484V15.6484ZM13.168 18.4023V18.8523H13.5463L13.6113 18.4797L13.168 18.4023ZM4.39062 18.4023L3.94732 18.325L3.85532 18.8523H4.39062V18.4023ZM4.87109 15.6484V15.1984H4.49281L4.42779 15.5711L4.87109 15.6484ZM11.018 7.83272L4.15085 21.8015L4.95853 22.1985L11.8257 8.22978L11.018 7.83272ZM4.55469 21.55H0.78125V22.45H4.55469V21.55ZM1.17814 22.2121L10.2953 5.14958L9.50154 4.72542L0.384357 21.7879L1.17814 22.2121ZM9.89844 5.3875H12.3125V4.4875H9.89844V5.3875ZM11.8801 4.81301L10.9894 7.90676L11.8543 8.15574L12.7449 5.06199L11.8801 4.81301ZM13.2266 21.9352L11.1406 7.60316L10.25 7.73278L12.3359 22.0648L13.2266 21.9352ZM11.1448 7.68919L11.2737 4.95872L10.3747 4.91628L10.2458 7.64675L11.1448 7.68919ZM10.8242 5.3875H13.0859V4.4875H10.8242V5.3875ZM12.6438 5.02102L15.8664 22.0835L16.7508 21.9165L13.5281 4.85398L12.6438 5.02102ZM16.3086 21.55H12.7812V22.45H16.3086V21.55ZM13.2051 15.5711L12.7247 18.325L13.6113 18.4797L14.0917 15.7258L13.2051 15.5711ZM13.168 17.9523H4.39062V18.8523H13.168V17.9523ZM4.83393 18.4797L5.3144 15.7258L4.42779 15.5711L3.94732 18.325L4.83393 18.4797ZM4.87109 16.0984H13.6484V15.1984H4.87109V16.0984ZM30.9711 19.2578L31.4147 19.3336L31.5045 18.8078H30.9711V19.2578ZM30.5023 22V22.45H30.8819L30.9459 22.0758L30.5023 22ZM18.7484 22L18.3052 21.9223L18.2127 22.45H18.7484V22ZM19.2289 19.2578V18.8078H18.8509L18.7857 19.1801L19.2289 19.2578ZM32.9164 7.04688L33.2612 7.33602L33.3384 7.24395L33.3595 7.12564L32.9164 7.04688ZM20.3773 22V22.45H20.5873L20.7222 22.2891L20.3773 22ZM17.8578 22L17.4148 21.921L17.3204 22.45H17.8578V22ZM18.2445 19.832L17.9009 19.5414L17.8228 19.6338L17.8015 19.753L18.2445 19.832ZM30.8422 4.9375V4.4875H30.6334L30.4986 4.6469L30.8422 4.9375ZM33.2914 4.9375L33.7345 5.01626L33.8285 4.4875H33.2914V4.9375ZM32.1195 4.9375L32.5628 5.01484L32.6548 4.4875H32.1195V4.9375ZM31.6391 7.69141V8.14141H32.0173L32.0824 7.76875L31.6391 7.69141ZM20.3422 7.69141L19.8992 7.61224L19.8046 8.14141H20.3422V7.69141ZM20.8344 4.9375V4.4875H20.4577L20.3914 4.85833L20.8344 4.9375ZM30.5275 19.182L30.0588 21.9242L30.9459 22.0758L31.4147 19.3336L30.5275 19.182ZM30.5023 21.55H18.7484V22.45H30.5023V21.55ZM19.1917 22.0777L19.6722 19.3355L18.7857 19.1801L18.3052 21.9223L19.1917 22.0777ZM19.2289 19.7078H30.9711V18.8078H19.2289V19.7078ZM32.5716 6.75773L20.0325 21.7109L20.7222 22.2891L33.2612 7.33602L32.5716 6.75773ZM20.3773 21.55H17.8578V22.45H20.3773V21.55ZM18.3008 22.079L18.6875 19.9111L17.8015 19.753L17.4148 21.921L18.3008 22.079ZM18.5881 20.1226L31.1858 5.2281L30.4986 4.6469L17.9009 19.5414L18.5881 20.1226ZM30.8422 5.3875H33.2914V4.4875H30.8422V5.3875ZM32.8484 4.85874L32.4734 6.96811L33.3595 7.12564L33.7345 5.01626L32.8484 4.85874ZM31.6762 4.86016L31.1958 7.61406L32.0824 7.76875L32.5628 5.01484L31.6762 4.86016ZM31.6391 7.24141H20.3422V8.14141H31.6391V7.24141ZM20.7852 7.77058L21.2774 5.01667L20.3914 4.85833L19.8992 7.61224L20.7852 7.77058ZM20.8344 5.3875H32.1195V4.4875H20.8344V5.3875ZM46.0555 11.8867L46.4987 11.9644L46.5912 11.4367H46.0555V11.8867ZM45.575 14.6289V15.0789H45.953L46.0182 14.7066L45.575 14.6289ZM36.9148 14.6289L36.4716 14.5512L36.3791 15.0789H36.9148V14.6289ZM37.3953 11.8867V11.4367H37.0173L36.9521 11.8091L37.3953 11.8867ZM39.6336 4.9375L40.077 5.01454L40.1685 4.4875H39.6336V4.9375ZM36.6688 22V22.45H37.0473L37.1121 22.077L36.6688 22ZM33.2352 22L32.7917 21.9233L32.7006 22.45H33.2352V22ZM36.1883 4.9375V4.4875H35.8095L35.7449 4.86076L36.1883 4.9375ZM49.6883 4.9375L50.1316 5.01454L50.2232 4.4875H49.6883V4.9375ZM46.7234 22V22.45H47.102L47.1668 22.077L46.7234 22ZM43.3133 22L42.8699 21.9233L42.7787 22.45H43.3133V22ZM46.2664 4.9375V4.4875H45.8876L45.823 4.86076L46.2664 4.9375ZM45.6122 11.8091L45.1318 14.5512L46.0182 14.7066L46.4987 11.9644L45.6122 11.8091ZM45.575 14.1789H36.9148V15.0789H45.575V14.1789ZM37.3581 14.7066L37.8386 11.9644L36.9521 11.8091L36.4716 14.5512L37.3581 14.7066ZM37.3953 12.3367H46.0555V11.4367H37.3953V12.3367ZM39.1902 4.86046L36.2254 21.923L37.1121 22.077L40.077 5.01454L39.1902 4.86046ZM36.6688 21.55H33.2352V22.45H36.6688V21.55ZM33.6786 22.0767L36.6317 5.01424L35.7449 4.86076L32.7917 21.9233L33.6786 22.0767ZM36.1883 5.3875H39.6336V4.4875H36.1883V5.3875ZM49.2449 4.86046L46.2801 21.923L47.1668 22.077L50.1316 5.01454L49.2449 4.86046ZM46.7234 21.55H43.3133V22.45H46.7234V21.55ZM43.7567 22.0767L46.7098 5.01424L45.823 4.86076L42.8699 21.9233L43.7567 22.0767ZM46.2664 5.3875H49.6883V4.4875H46.2664V5.3875ZM55.1398 4.9375L55.5742 4.82004L55.484 4.48638L55.1384 4.4875L55.1398 4.9375ZM57.2375 12.6953L56.8031 12.8128L57.0743 13.8157L57.6203 12.9318L57.2375 12.6953ZM62.0305 4.9375V4.4875H61.7795L61.6476 4.70098L62.0305 4.9375ZM65.9328 4.9375L66.3055 5.18967L66.7806 4.4875H65.9328V4.9375ZM58.4797 15.9531L58.107 15.701L58.0525 15.7815L58.0361 15.8775L58.4797 15.9531ZM57.4484 22V22.45H57.8282L57.892 22.0757L57.4484 22ZM53.9562 22L53.5129 21.9227L53.421 22.45H53.9562V22ZM55.0695 15.6133L55.5128 15.6906L55.5323 15.5788L55.4965 15.4711L55.0695 15.6133ZM51.5187 4.94922L51.5173 4.49922L50.8953 4.50123L51.0918 5.09138L51.5187 4.94922ZM54.7054 5.05496L56.8031 12.8128L57.6719 12.5779L55.5742 4.82004L54.7054 5.05496ZM57.6203 12.9318L62.4133 5.17402L61.6476 4.70098L56.8547 12.4588L57.6203 12.9318ZM62.0305 5.3875H65.9328V4.4875H62.0305V5.3875ZM65.5601 4.68533L58.107 15.701L58.8524 16.2053L66.3055 5.18967L65.5601 4.68533ZM58.0361 15.8775L57.0048 21.9243L57.892 22.0757L58.9233 16.0288L58.0361 15.8775ZM57.4484 21.55H53.9562V22.45H57.4484V21.55ZM54.3996 22.0773L55.5128 15.6906L54.6262 15.536L53.5129 21.9227L54.3996 22.0773ZM55.4965 15.4711L51.9457 4.80706L51.0918 5.09138L54.6426 15.7554L55.4965 15.4711ZM51.5202 5.39922L55.1413 5.3875L55.1384 4.4875L51.5173 4.49922L51.5202 5.39922ZM72.6734 15.9297L72.6722 16.3797H72.6734V15.9297ZM68.2555 15.918L67.8122 15.8403L67.72 16.3666L68.2543 16.368L68.2555 15.918ZM68.7359 13.1758L68.7372 12.7258L68.3581 12.7247L68.2927 13.0981L68.7359 13.1758ZM72.7906 13.1875L72.7893 13.6375H72.7906V13.1875ZM74.3844 12.8828L74.5584 13.2978L74.564 13.2954L74.3844 12.8828ZM76.1773 10.4688L75.7326 10.4003L75.7319 10.4051L76.1773 10.4688ZM74.0914 7.70312L74.1112 7.25356L74.1022 7.25316L74.0931 7.25313L74.0914 7.70312ZM70.8922 7.69141L70.8938 7.24141L70.5138 7.24002L70.4488 7.61443L70.8922 7.69141ZM68.4078 22V22.45H68.7864L68.8512 22.077L68.4078 22ZM64.9742 22L64.5308 21.9233L64.4396 22.45H64.9742V22ZM67.9273 4.9375L67.9282 4.4875L67.5487 4.48679L67.4839 4.86076L67.9273 4.9375ZM74.1969 4.94922L74.2066 4.49924L74.1977 4.49922L74.1969 4.94922ZM77.1031 5.65234L76.8946 6.05112L76.8975 6.05261L77.1031 5.65234ZM79.0719 7.52734L78.6804 7.7494L78.683 7.75385L79.0719 7.52734ZM79.6344 10.4453L79.1859 10.4085L79.1859 10.4086L79.6344 10.4453ZM75.9313 15.3438L76.0928 15.7638L76.0945 15.7631L75.9313 15.3438ZM72.6746 15.4797L68.2567 15.468L68.2543 16.368L72.6722 16.3797L72.6746 15.4797ZM68.6987 15.9956L69.1792 13.2534L68.2927 13.0981L67.8122 15.8403L68.6987 15.9956ZM68.7346 13.6258L72.7893 13.6375L72.7919 12.7375L68.7372 12.7258L68.7346 13.6258ZM72.7906 13.6375C73.4225 13.6375 74.0136 13.5263 74.5584 13.2978L74.2103 12.4678C73.7864 12.6456 73.315 12.7375 72.7906 12.7375V13.6375ZM74.564 13.2954C75.1138 13.056 75.5732 12.7062 75.9338 12.2465L75.2256 11.691C74.9612 12.0282 74.6237 12.2878 74.2047 12.4702L74.564 13.2954ZM75.9338 12.2465C76.3039 11.7746 76.528 11.1964 76.6228 10.5324L75.7319 10.4051C75.6549 10.9442 75.4805 11.3661 75.2256 11.691L75.9338 12.2465ZM76.6221 10.5372C76.7088 9.97353 76.6818 9.44345 76.523 8.95782L75.6676 9.23749C75.7745 9.56437 75.8021 9.94834 75.7326 10.4003L76.6221 10.5372ZM76.523 8.95782C76.362 8.46514 76.073 8.05901 75.6608 7.75228L75.1235 8.47429C75.3832 8.66755 75.563 8.91767 75.6676 9.23749L76.523 8.95782ZM75.6608 7.75228C75.2354 7.43568 74.7082 7.2799 74.1112 7.25356L74.0716 8.15269C74.5371 8.17323 74.8771 8.29088 75.1235 8.47429L75.6608 7.75228ZM74.0931 7.25313L70.8938 7.24141L70.8905 8.1414L74.0898 8.15312L74.0931 7.25313ZM70.4488 7.61443L67.9644 21.923L68.8512 22.077L71.3356 7.76839L70.4488 7.61443ZM68.4078 21.55H64.9742V22.45H68.4078V21.55ZM65.4176 22.0767L68.3708 5.01424L67.4839 4.86076L64.5308 21.9233L65.4176 22.0767ZM67.9265 5.3875L74.196 5.39922L74.1977 4.49922L67.9282 4.4875L67.9265 5.3875ZM74.1872 5.39911C75.2129 5.42125 76.1121 5.6419 76.8946 6.05111L77.3117 5.25358C76.3911 4.77216 75.3528 4.52406 74.2066 4.49932L74.1872 5.39911ZM76.8975 6.05261C77.6731 6.45111 78.2639 7.0151 78.6805 7.74939L79.4633 7.3053C78.958 6.41459 78.2362 5.72857 77.3088 5.25208L76.8975 6.05261ZM78.683 7.75385C79.0957 8.46228 79.2738 9.33837 79.1859 10.4085L80.0829 10.4822C80.1824 9.271 79.9855 8.20179 79.4607 7.30084L78.683 7.75385ZM79.1859 10.4086C79.0904 11.5762 78.7305 12.5113 78.1274 13.2406L78.821 13.8141C79.5617 12.9184 79.9752 11.7988 80.0829 10.482L79.1859 10.4086ZM78.1274 13.2406C77.5065 13.9915 76.7231 14.5526 75.768 14.9244L76.0945 15.7631C77.1863 15.338 78.0982 14.6882 78.821 13.8141L78.1274 13.2406ZM75.7697 14.9237C74.8088 15.2933 73.7779 15.4797 72.6734 15.4797V16.3797C73.8814 16.3797 75.0225 16.1754 76.0928 15.7638L75.7697 14.9237ZM87.8281 8.03125L88.232 8.22978L88.2495 8.19403L88.2606 8.15574L87.8281 8.03125ZM80.9609 22V22.45H81.2412L81.3648 22.1985L80.9609 22ZM77.1875 22L76.7906 21.7879L76.4368 22.45H77.1875V22ZM86.3047 4.9375V4.4875H86.0349L85.9078 4.72542L86.3047 4.9375ZM88.7188 4.9375L89.1512 5.06199L89.3166 4.4875H88.7188V4.9375ZM89.1875 22L88.7422 22.0648L88.7983 22.45H89.1875V22ZM87.1016 7.66797L86.6521 7.64675L86.65 7.68997L86.6563 7.73278L87.1016 7.66797ZM87.2305 4.9375V4.4875H86.8012L86.781 4.91628L87.2305 4.9375ZM89.4922 4.9375L89.9344 4.85398L89.8652 4.4875H89.4922V4.9375ZM92.7148 22V22.45H93.2578L93.157 21.9165L92.7148 22ZM90.0547 15.6484L90.498 15.7258L90.59 15.1984H90.0547V15.6484ZM89.5742 18.4023V18.8523H89.9525L90.0175 18.4797L89.5742 18.4023ZM80.7969 18.4023L80.3536 18.325L80.2616 18.8523H80.7969V18.4023ZM81.2773 15.6484V15.1984H80.8991L80.834 15.5711L81.2773 15.6484ZM87.4243 7.83272L80.5571 21.8015L81.3648 22.1985L88.232 8.22978L87.4243 7.83272ZM80.9609 21.55H77.1875V22.45H80.9609V21.55ZM77.5844 22.2121L86.7016 5.14958L85.9078 4.72542L76.7906 21.7879L77.5844 22.2121ZM86.3047 5.3875H88.7188V4.4875H86.3047V5.3875ZM88.2863 4.81301L87.3957 7.90676L88.2606 8.15574L89.1512 5.06199L88.2863 4.81301ZM89.6328 21.9352L87.5469 7.60316L86.6563 7.73278L88.7422 22.0648L89.6328 21.9352ZM87.5511 7.68919L87.68 4.95872L86.781 4.91628L86.6521 7.64675L87.5511 7.68919ZM87.2305 5.3875H89.4922V4.4875H87.2305V5.3875ZM89.05 5.02102L92.2727 22.0835L93.157 21.9165L89.9344 4.85398L89.05 5.02102ZM92.7148 21.55H89.1875V22.45H92.7148V21.55ZM89.6114 15.5711L89.1309 18.325L90.0175 18.4797L90.498 15.7258L89.6114 15.5711ZM89.5742 17.9523H80.7969V18.8523H89.5742V17.9523ZM81.2402 18.4797L81.7206 15.7258L80.834 15.5711L80.3536 18.325L81.2402 18.4797ZM81.2773 16.0984H90.0547V15.1984H81.2773V16.0984Z" fill="white"/>
<path d="M107.828 4.9375H110.617L112.691 17.4297L119.102 4.9375H122.125L113.195 22H110.852L107.828 4.9375ZM106.199 4.9375H109.105L107.5 17.3008L106.668 22H103.246L106.199 4.9375ZM120.719 4.9375H123.637L120.684 22H117.238L118.117 17.0078L120.719 4.9375ZM135.85 19.2578L135.37 22H126.545L127.014 19.2578H135.85ZM130.635 4.9375L127.67 22H124.237L127.19 4.9375H130.635ZM135.979 11.8867L135.51 14.5586H127.834L128.303 11.8867H135.979ZM138.311 4.9375L137.83 7.69141H129.018L129.51 4.9375H138.311ZM143.223 22H139.427L139.919 19.2578L143.329 19.2812C144.391 19.2812 145.286 19.0312 146.013 18.5312C146.739 18.0234 147.309 17.3594 147.723 16.5391C148.145 15.7109 148.43 14.8164 148.579 13.8555L148.684 13.0234C148.755 12.4297 148.778 11.8281 148.755 11.2188C148.731 10.6016 148.618 10.0312 148.415 9.50781C148.22 8.98438 147.907 8.55859 147.477 8.23047C147.048 7.90234 146.466 7.72656 145.731 7.70312L141.841 7.69141L142.321 4.9375L145.837 4.94922C146.977 4.97266 147.97 5.20703 148.813 5.65234C149.657 6.08984 150.348 6.68359 150.888 7.43359C151.427 8.18359 151.802 9.04297 152.013 10.0117C152.223 10.9727 152.266 11.9844 152.141 13.0469L152.048 13.8789C151.891 15.0195 151.567 16.0859 151.075 17.0781C150.591 18.0703 149.962 18.9375 149.188 19.6797C148.423 20.4141 147.536 20.9883 146.528 21.4023C145.52 21.8086 144.419 22.0078 143.223 22ZM144.337 4.9375L141.372 22H137.938L140.891 4.9375H144.337ZM160.288 4.9375L157.335 22H153.902L156.866 4.9375H160.288ZM170.486 8.03125L163.619 22H159.845L168.963 4.9375H171.377L170.486 8.03125ZM171.845 22L169.759 7.66797L169.888 4.9375H172.15L175.373 22H171.845ZM172.713 15.6484L172.232 18.4023H163.455L163.935 15.6484H172.713ZM194.584 16.3516L197.936 16.3047C197.787 17.5625 197.362 18.6406 196.659 19.5391C195.963 20.4297 195.088 21.1094 194.034 21.5781C192.979 22.0391 191.834 22.2578 190.6 22.2344C189.459 22.2109 188.498 21.9688 187.717 21.5078C186.936 21.0391 186.323 20.4141 185.877 19.6328C185.432 18.8516 185.139 17.9805 184.998 17.0195C184.858 16.0586 184.85 15.0742 184.975 14.0664L185.139 12.8828C185.295 11.8203 185.58 10.793 185.995 9.80078C186.416 8.80859 186.967 7.92578 187.647 7.15234C188.327 6.37891 189.131 5.76953 190.061 5.32422C190.991 4.87891 192.045 4.66797 193.225 4.69141C194.459 4.71484 195.502 4.98047 196.354 5.48828C197.213 5.98828 197.873 6.6875 198.334 7.58594C198.803 8.47656 199.065 9.51953 199.12 10.7148L195.709 10.7031C195.717 10.0703 195.639 9.51562 195.475 9.03906C195.319 8.55469 195.045 8.17969 194.655 7.91406C194.264 7.64063 193.725 7.49219 193.037 7.46875C192.287 7.44531 191.651 7.59375 191.127 7.91406C190.604 8.23438 190.17 8.66406 189.827 9.20312C189.491 9.74219 189.225 10.332 189.03 10.9727C188.842 11.6133 188.702 12.2422 188.608 12.8594L188.444 14.0781C188.381 14.5859 188.338 15.1484 188.315 15.7656C188.291 16.375 188.342 16.957 188.467 17.5117C188.592 18.0664 188.834 18.5273 189.194 18.8945C189.553 19.2539 190.088 19.4453 190.799 19.4688C191.502 19.4922 192.108 19.3828 192.616 19.1406C193.131 18.8984 193.549 18.5391 193.87 18.0625C194.198 17.5859 194.436 17.0156 194.584 16.3516ZM211.52 19.2578L211.04 22H202.216L202.684 19.2578H211.52ZM206.305 4.9375L203.341 22H199.907L202.86 4.9375H206.305ZM211.649 11.8867L211.18 14.5586H203.505L203.973 11.8867H211.649ZM213.981 4.9375L213.501 7.69141H204.688L205.18 4.9375H213.981ZM230.062 4.9375L227.097 22H223.769L219.046 10.4336L217.042 22H213.609L216.562 4.9375H219.902L224.636 16.5156L226.64 4.9375H230.062ZM240.67 4.9375L237.716 22H234.283L237.248 4.9375H240.67ZM245.755 4.9375L245.275 7.69141H231.763L232.244 4.9375H245.755ZM256.938 19.2578L256.457 22H247.633L248.102 19.2578H256.938ZM251.723 4.9375L248.758 22H245.324L248.277 4.9375H251.723ZM257.066 11.8867L256.598 14.5586H248.922L249.391 11.8867H257.066ZM259.398 4.9375L258.918 7.69141H250.105L250.598 4.9375H259.398ZM261.979 4.9375L267.991 4.94922C269.03 4.96484 269.971 5.15625 270.815 5.52344C271.666 5.89062 272.327 6.44141 272.795 7.17578C273.272 7.91016 273.471 8.84375 273.393 9.97656C273.315 10.9062 273.088 11.6914 272.713 12.332C272.346 12.9727 271.85 13.5156 271.225 13.9609C270.608 14.4062 269.897 14.7891 269.092 15.1094L267.897 15.6836H262.342L262.811 12.9414L266.631 12.9648C267.202 12.957 267.721 12.8477 268.19 12.6367C268.659 12.4258 269.045 12.1211 269.35 11.7227C269.663 11.3164 269.858 10.8242 269.936 10.2461C270.006 9.73828 269.971 9.29688 269.83 8.92188C269.698 8.54688 269.467 8.25391 269.139 8.04297C268.811 7.83203 268.393 7.71875 267.885 7.70312L264.944 7.69141L262.459 22H259.026L261.979 4.9375ZM268.366 22L265.905 14.3945L269.362 14.3711L272.022 21.8125V22H268.366Z" fill="#FA00CE"/>
<path d="M107.828 4.9375V4.4875H107.291L107.385 5.01602L107.828 4.9375ZM110.617 4.9375L111.061 4.86379L110.999 4.4875H110.617V4.9375ZM112.691 17.4297L112.247 17.5034L112.47 18.846L113.092 17.6351L112.691 17.4297ZM119.102 4.9375V4.4875H118.827L118.701 4.73206L119.102 4.9375ZM122.125 4.9375L122.524 5.14616L122.868 4.4875H122.125V4.9375ZM113.195 22V22.45H113.468L113.594 22.2087L113.195 22ZM110.852 22L110.408 22.0785L110.474 22.45H110.852V22ZM106.199 4.9375V4.4875H105.82L105.756 4.86076L106.199 4.9375ZM109.105 4.9375L109.552 4.99545L109.618 4.4875H109.105V4.9375ZM107.5 17.3008L107.943 17.3792L107.945 17.369L107.946 17.3587L107.5 17.3008ZM106.668 22V22.45H107.045L107.111 22.0785L106.668 22ZM103.246 22L102.803 21.9233L102.712 22.45H103.246V22ZM120.719 4.9375V4.4875H120.355L120.279 4.84269L120.719 4.9375ZM123.637 4.9375L124.08 5.01424L124.171 4.4875H123.637V4.9375ZM120.684 22V22.45H121.062L121.127 22.0767L120.684 22ZM117.238 22L116.795 21.922L116.702 22.45H117.238V22ZM118.117 17.0078L117.677 16.913L117.675 16.9214L117.674 16.9298L118.117 17.0078ZM107.828 5.3875H110.617V4.4875H107.828V5.3875ZM110.173 5.01121L112.247 17.5034L113.135 17.356L111.061 4.86379L110.173 5.01121ZM113.092 17.6351L119.502 5.14294L118.701 4.73206L112.291 17.2242L113.092 17.6351ZM119.102 5.3875H122.125V4.4875H119.102V5.3875ZM121.726 4.72884L112.797 21.7913L113.594 22.2087L122.524 5.14616L121.726 4.72884ZM113.195 21.55H110.852V22.45H113.195V21.55ZM111.295 21.9215L108.271 4.85898L107.385 5.01602L110.408 22.0785L111.295 21.9215ZM106.199 5.3875H109.105V4.4875H106.199V5.3875ZM108.659 4.87955L107.054 17.2428L107.946 17.3587L109.552 4.99545L108.659 4.87955ZM107.057 17.2223L106.225 21.9215L107.111 22.0785L107.943 17.3792L107.057 17.2223ZM106.668 21.55H103.246V22.45H106.668V21.55ZM103.69 22.0767L106.643 5.01424L105.756 4.86076L102.803 21.9233L103.69 22.0767ZM120.719 5.3875H123.637V4.4875H120.719V5.3875ZM123.193 4.86076L120.24 21.9233L121.127 22.0767L124.08 5.01424L123.193 4.86076ZM120.684 21.55H117.238V22.45H120.684V21.55ZM117.681 22.078L118.56 17.0858L117.674 16.9298L116.795 21.922L117.681 22.078ZM118.557 17.1026L121.159 5.03231L120.279 4.84269L117.677 16.913L118.557 17.1026ZM135.85 19.2578L136.293 19.3355L136.386 18.8078H135.85V19.2578ZM135.37 22V22.45H135.748L135.813 22.0777L135.37 22ZM126.545 22L126.102 21.9242L126.012 22.45H126.545V22ZM127.014 19.2578V18.8078H126.634L126.57 19.182L127.014 19.2578ZM130.635 4.9375L131.079 5.01454L131.17 4.4875H130.635V4.9375ZM127.67 22V22.45H128.049L128.114 22.077L127.67 22ZM124.237 22L123.793 21.9233L123.702 22.45H124.237V22ZM127.19 4.9375V4.4875H126.811L126.746 4.86076L127.19 4.9375ZM135.979 11.8867L136.422 11.9645L136.515 11.4367H135.979V11.8867ZM135.51 14.5586V15.0086H135.888L135.953 14.6364L135.51 14.5586ZM127.834 14.5586L127.391 14.4808L127.299 15.0086H127.834V14.5586ZM128.303 11.8867V11.4367H127.925L127.86 11.809L128.303 11.8867ZM138.311 4.9375L138.754 5.01484L138.846 4.4875H138.311V4.9375ZM137.83 7.69141V8.14141H138.209L138.274 7.76875L137.83 7.69141ZM129.018 7.69141L128.575 7.61224L128.48 8.14141H129.018V7.69141ZM129.51 4.9375V4.4875H129.133L129.067 4.85833L129.51 4.9375ZM135.407 19.1801L134.926 21.9223L135.813 22.0777L136.293 19.3355L135.407 19.1801ZM135.37 21.55H126.545V22.45H135.37V21.55ZM126.989 22.0758L127.458 19.3336L126.57 19.182L126.102 21.9242L126.989 22.0758ZM127.014 19.7078H135.85V18.8078H127.014V19.7078ZM130.192 4.86046L127.227 21.923L128.114 22.077L131.079 5.01454L130.192 4.86046ZM127.67 21.55H124.237V22.45H127.67V21.55ZM124.68 22.0767L127.633 5.01424L126.746 4.86076L123.793 21.9233L124.68 22.0767ZM127.19 5.3875H130.635V4.4875H127.19V5.3875ZM135.536 11.809L135.067 14.4808L135.953 14.6364L136.422 11.9645L135.536 11.809ZM135.51 14.1086H127.834V15.0086H135.51V14.1086ZM128.278 14.6364L128.746 11.9645L127.86 11.809L127.391 14.4808L128.278 14.6364ZM128.303 12.3367H135.979V11.4367H128.303V12.3367ZM137.868 4.86016L137.387 7.61406L138.274 7.76875L138.754 5.01484L137.868 4.86016ZM137.83 7.24141H129.018V8.14141H137.83V7.24141ZM129.461 7.77058L129.953 5.01667L129.067 4.85833L128.575 7.61224L129.461 7.77058ZM129.51 5.3875H138.311V4.4875H129.51V5.3875ZM143.223 22L143.226 21.55H143.223V22ZM139.427 22L138.984 21.9205L138.889 22.45H139.427V22ZM139.919 19.2578L139.922 18.8078L139.543 18.8052L139.476 19.1783L139.919 19.2578ZM143.329 19.2812L143.326 19.7312H143.329V19.2812ZM146.013 18.5312L146.268 18.902L146.27 18.9001L146.013 18.5312ZM147.723 16.5391L147.322 16.3348L147.322 16.3363L147.723 16.5391ZM148.579 13.8555L149.024 13.9242L149.025 13.9121L148.579 13.8555ZM148.684 13.0234L149.131 13.08L149.131 13.0764L148.684 13.0234ZM148.755 11.2188L148.305 11.2358L148.305 11.236L148.755 11.2188ZM148.415 9.50781L147.993 9.66514L147.995 9.67061L148.415 9.50781ZM145.731 7.70312L145.746 7.25317L145.733 7.25313L145.731 7.70312ZM141.841 7.69141L141.397 7.61406L141.306 8.1398L141.839 8.1414L141.841 7.69141ZM142.321 4.9375L142.323 4.4875L141.943 4.48624L141.878 4.86016L142.321 4.9375ZM145.837 4.94922L145.846 4.49925L145.838 4.49922L145.837 4.94922ZM148.813 5.65234L148.603 6.05033L148.606 6.05183L148.813 5.65234ZM152.013 10.0117L151.573 10.1075L151.573 10.1082L152.013 10.0117ZM152.141 13.0469L151.694 12.9943L151.694 12.9965L152.141 13.0469ZM152.048 13.8789L152.494 13.94L152.495 13.9293L152.048 13.8789ZM151.075 17.0781L150.672 16.8781L150.671 16.8807L151.075 17.0781ZM149.188 19.6797L149.5 20.0044L149.5 20.0044L149.188 19.6797ZM146.528 21.4023L146.696 21.8197L146.699 21.8186L146.528 21.4023ZM144.337 4.9375L144.78 5.01454L144.872 4.4875H144.337V4.9375ZM141.372 22V22.45H141.75L141.815 22.077L141.372 22ZM137.938 22L137.495 21.9233L137.404 22.45H137.938V22ZM140.891 4.9375V4.4875H140.513L140.448 4.86076L140.891 4.9375ZM143.223 21.55H139.427V22.45H143.223V21.55ZM139.869 22.0795L140.362 19.3373L139.476 19.1783L138.984 21.9205L139.869 22.0795ZM139.916 19.7078L143.326 19.7312L143.332 18.8313L139.922 18.8078L139.916 19.7078ZM143.329 19.7312C144.464 19.7312 145.452 19.4634 146.268 18.902L145.757 18.1605C145.12 18.5991 144.319 18.8313 143.329 18.8313V19.7312ZM146.27 18.9001C147.06 18.3481 147.679 17.626 148.125 16.7418L147.322 16.3363C146.94 17.0927 146.418 17.6988 145.755 18.1624L146.27 18.9001ZM148.124 16.7433C148.569 15.8707 148.868 14.9301 149.024 13.9242L148.134 13.7868C147.993 14.7027 147.722 15.5512 147.322 16.3348L148.124 16.7433ZM149.025 13.9121L149.131 13.08L148.238 12.9668L148.132 13.7989L149.025 13.9121ZM149.131 13.0764C149.204 12.4589 149.229 11.8338 149.204 11.2015L148.305 11.236C148.328 11.8224 148.305 12.4005 148.237 12.9705L149.131 13.0764ZM149.204 11.2017C149.179 10.5395 149.057 9.91944 148.834 9.34501L147.995 9.67061C148.179 10.1431 148.283 10.6636 148.305 11.2358L149.204 11.2017ZM148.836 9.3505C148.613 8.75042 148.25 8.25418 147.75 7.87282L147.204 8.58811C147.564 8.86301 147.827 9.21833 147.993 9.66513L148.836 9.3505ZM147.75 7.87282C147.224 7.47056 146.541 7.27873 145.746 7.25335L145.717 8.1529C146.391 8.1744 146.872 8.33413 147.204 8.58811L147.75 7.87282ZM145.733 7.25313L141.842 7.24141L141.839 8.1414L145.73 8.15312L145.733 7.25313ZM142.284 7.76875L142.764 5.01484L141.878 4.86016L141.397 7.61406L142.284 7.76875ZM142.32 5.3875L145.835 5.39922L145.838 4.49922L142.323 4.4875L142.32 5.3875ZM145.827 5.39912C146.912 5.4214 147.832 5.64352 148.603 6.05032L149.023 5.25437C148.107 4.77054 147.043 4.52391 145.846 4.49931L145.827 5.39912ZM148.606 6.05183C149.389 6.45776 150.026 7.00535 150.522 7.69623L151.253 7.17096C150.671 6.36184 149.925 5.72193 149.02 5.25285L148.606 6.05183ZM150.522 7.69623C151.023 8.39267 151.374 9.19436 151.573 10.1075L152.452 9.91598C152.229 8.89158 151.83 7.97451 151.253 7.17096L150.522 7.69623ZM151.573 10.1082C151.772 11.0161 151.814 11.9772 151.694 12.9943L152.588 13.0995C152.719 11.9915 152.675 10.9292 152.452 9.91524L151.573 10.1082ZM151.694 12.9965L151.6 13.8285L152.495 13.9293L152.589 13.0973L151.694 12.9965ZM151.602 13.8178C151.452 14.9121 151.142 15.9314 150.672 16.8781L151.478 17.2781C151.993 16.2405 152.331 15.127 152.493 13.94L151.602 13.8178ZM150.671 16.8807C150.209 17.8268 149.611 18.6505 148.877 19.355L149.5 20.0044C150.313 19.2245 150.973 18.3138 151.479 17.2755L150.671 16.8807ZM148.877 19.3549C148.153 20.0492 147.314 20.5929 146.357 20.9861L146.699 21.8186C147.758 21.3837 148.692 20.7789 149.5 20.0044L148.877 19.3549ZM146.36 20.985C145.412 21.3672 144.369 21.5575 143.226 21.55L143.22 22.45C144.469 22.4581 145.629 22.25 146.696 21.8197L146.36 20.985ZM143.893 4.86046L140.929 21.923L141.815 22.077L144.78 5.01454L143.893 4.86046ZM141.372 21.55H137.938V22.45H141.372V21.55ZM138.382 22.0767L141.335 5.01424L140.448 4.86076L137.495 21.9233L138.382 22.0767ZM140.891 5.3875H144.337V4.4875H140.891V5.3875ZM160.288 4.9375L160.732 5.01424L160.823 4.4875H160.288V4.9375ZM157.335 22V22.45H157.714L157.779 22.0767L157.335 22ZM153.902 22L153.458 21.923L153.367 22.45H153.902V22ZM156.866 4.9375V4.4875H156.488L156.423 4.86046L156.866 4.9375ZM159.845 4.86076L156.892 21.9233L157.779 22.0767L160.732 5.01424L159.845 4.86076ZM157.335 21.55H153.902V22.45H157.335V21.55ZM154.345 22.077L157.31 5.01454L156.423 4.86046L153.458 21.923L154.345 22.077ZM156.866 5.3875H160.288V4.4875H156.866V5.3875ZM170.486 8.03125L170.89 8.22978L170.907 8.19403L170.918 8.15574L170.486 8.03125ZM163.619 22V22.45H163.899L164.023 22.1985L163.619 22ZM159.845 22L159.448 21.7879L159.095 22.45H159.845V22ZM168.963 4.9375V4.4875H168.693L168.566 4.72542L168.963 4.9375ZM171.377 4.9375L171.809 5.06199L171.974 4.4875H171.377V4.9375ZM171.845 22L171.4 22.0648L171.456 22.45H171.845V22ZM169.759 7.66797L169.31 7.64675L169.308 7.68997L169.314 7.73278L169.759 7.66797ZM169.888 4.9375V4.4875H169.459L169.439 4.91628L169.888 4.9375ZM172.15 4.9375L172.592 4.85398L172.523 4.4875H172.15V4.9375ZM175.373 22V22.45H175.916L175.815 21.9165L175.373 22ZM172.713 15.6484L173.156 15.7258L173.248 15.1984H172.713V15.6484ZM172.232 18.4023V18.8523H172.61L172.675 18.4797L172.232 18.4023ZM163.455 18.4023L163.011 18.325L162.919 18.8523H163.455V18.4023ZM163.935 15.6484V15.1984H163.557L163.492 15.5711L163.935 15.6484ZM170.082 7.83272L163.215 21.8015L164.023 22.1985L170.89 8.22978L170.082 7.83272ZM163.619 21.55H159.845V22.45H163.619V21.55ZM160.242 22.2121L169.359 5.14958L168.566 4.72542L159.448 21.7879L160.242 22.2121ZM168.963 5.3875H171.377V4.4875H168.963V5.3875ZM170.944 4.81301L170.054 7.90676L170.918 8.15574L171.809 5.06199L170.944 4.81301ZM172.291 21.9352L170.205 7.60316L169.314 7.73278L171.4 22.0648L172.291 21.9352ZM170.209 7.68919L170.338 4.95872L169.439 4.91628L169.31 7.64675L170.209 7.68919ZM169.888 5.3875H172.15V4.4875H169.888V5.3875ZM171.708 5.02102L174.93 22.0835L175.815 21.9165L172.592 4.85398L171.708 5.02102ZM175.373 21.55H171.845V22.45H175.373V21.55ZM172.269 15.5711L171.789 18.325L172.675 18.4797L173.156 15.7258L172.269 15.5711ZM172.232 17.9523H163.455V18.8523H172.232V17.9523ZM163.898 18.4797L164.378 15.7258L163.492 15.5711L163.011 18.325L163.898 18.4797ZM163.935 16.0984H172.713V15.1984H163.935V16.0984ZM194.584 16.3516L194.578 15.9016L194.223 15.9066L194.145 16.2534L194.584 16.3516ZM197.936 16.3047L198.383 16.3574L198.443 15.8476L197.93 15.8547L197.936 16.3047ZM196.659 19.5391L196.304 19.2617L196.304 19.2621L196.659 19.5391ZM194.034 21.5781L194.214 21.9905L194.216 21.9893L194.034 21.5781ZM190.6 22.2344L190.591 22.6843L190.591 22.6843L190.6 22.2344ZM187.717 21.5078L187.486 21.8937L187.489 21.8954L187.717 21.5078ZM184.975 14.0664L184.529 14.0046L184.528 14.011L184.975 14.0664ZM185.139 12.8828L184.694 12.8173L184.693 12.821L185.139 12.8828ZM185.995 9.80078L185.58 9.62469L185.579 9.62747L185.995 9.80078ZM193.225 4.69141L193.216 5.14132L193.216 5.14133L193.225 4.69141ZM196.354 5.48828L196.123 5.8748L196.128 5.87724L196.354 5.48828ZM198.334 7.58594L197.934 7.79136L197.936 7.79552L198.334 7.58594ZM199.12 10.7148L199.118 11.1648L199.591 11.1665L199.569 10.6943L199.12 10.7148ZM195.709 10.7031L195.259 10.6976L195.254 11.1516L195.708 11.1531L195.709 10.7031ZM195.475 9.03906L195.047 9.17724L195.05 9.18554L195.475 9.03906ZM194.655 7.91406L194.397 8.28275L194.402 8.28618L194.655 7.91406ZM193.037 7.46875L193.053 7.01901L193.052 7.01897L193.037 7.46875ZM189.827 9.20312L189.447 8.96116L189.445 8.96512L189.827 9.20312ZM189.03 10.9727L188.599 10.8414L188.598 10.8463L189.03 10.9727ZM188.608 12.8594L188.163 12.7918L188.162 12.7993L188.608 12.8594ZM188.444 14.0781L187.998 14.0181L187.997 14.0232L188.444 14.0781ZM188.315 15.7656L188.765 15.7829L188.765 15.7827L188.315 15.7656ZM189.194 18.8945L188.872 19.2093L188.876 19.2127L189.194 18.8945ZM190.799 19.4688L190.814 19.019L190.814 19.019L190.799 19.4688ZM192.616 19.1406L192.424 18.7333L192.422 18.7345L192.616 19.1406ZM193.87 18.0625L193.499 17.8073L193.496 17.8115L193.87 18.0625ZM194.591 16.8015L197.942 16.7546L197.93 15.8547L194.578 15.9016L194.591 16.8015ZM197.489 16.2519C197.349 17.4371 196.951 18.4352 196.304 19.2617L197.013 19.8164C197.772 18.846 198.226 17.6879 198.383 16.3574L197.489 16.2519ZM196.304 19.2621C195.655 20.0933 194.84 20.7275 193.851 21.1669L194.216 21.9893C195.337 21.4913 196.272 20.7661 197.013 19.816L196.304 19.2621ZM193.853 21.1658C192.862 21.5989 191.783 21.8068 190.609 21.7845L190.591 22.6843C191.886 22.7089 193.095 22.4792 194.214 21.9905L193.853 21.1658ZM190.609 21.7845C189.526 21.7622 188.645 21.533 187.946 21.1202L187.489 21.8954C188.351 22.4045 189.392 22.6597 190.591 22.6843L190.609 21.7845ZM187.949 21.1219C187.233 20.6924 186.675 20.1232 186.268 19.41L185.486 19.8557C185.97 20.705 186.639 21.3857 187.486 21.8937L187.949 21.1219ZM186.268 19.41C185.853 18.6812 185.577 17.8643 185.444 16.9544L184.553 17.0847C184.701 18.0966 185.011 19.0219 185.486 19.8557L186.268 19.41ZM185.444 16.9544C185.309 16.0352 185.301 15.0914 185.422 14.1218L184.528 14.011C184.399 15.0571 184.406 16.082 184.553 17.0847L185.444 16.9544ZM185.421 14.1282L185.585 12.9446L184.693 12.821L184.529 14.0046L185.421 14.1282ZM185.584 12.9483C185.735 11.9229 186.01 10.9318 186.41 9.97409L185.579 9.62747C185.151 10.6542 184.856 11.7177 184.694 12.8173L185.584 12.9483ZM186.409 9.97686C186.813 9.0267 187.338 8.18515 187.985 7.4494L187.309 6.85529C186.596 7.66641 186.02 8.59049 185.58 9.6247L186.409 9.97686ZM187.985 7.4494C188.624 6.72159 189.38 6.1492 190.255 5.73006L189.867 4.91837C188.882 5.38987 188.029 6.03622 187.309 6.85529L187.985 7.4494ZM190.255 5.73006C191.113 5.31925 192.096 5.11907 193.216 5.14132L193.234 4.2415C191.994 4.21686 190.868 4.43857 189.867 4.91837L190.255 5.73006ZM193.216 5.14133C194.392 5.16364 195.354 5.41575 196.123 5.87478L196.584 5.10179C195.651 4.54519 194.527 4.26605 193.234 4.24149L193.216 5.14133ZM196.128 5.87724C196.911 6.33325 197.512 6.96821 197.934 7.79135L198.735 7.38052C198.235 6.40679 197.515 5.64331 196.58 5.09932L196.128 5.87724ZM197.936 7.79552C198.369 8.61766 198.618 9.59378 198.67 10.7354L199.569 10.6943C199.512 9.44528 199.237 8.33546 198.733 7.37635L197.936 7.79552ZM199.121 10.2648L195.711 10.2531L195.708 11.1531L199.118 11.1648L199.121 10.2648ZM196.159 10.7087C196.168 10.0368 196.085 9.42873 195.9 8.89258L195.05 9.18554C195.193 9.60252 195.267 10.1038 195.259 10.6976L196.159 10.7087ZM195.903 8.90091C195.719 8.32909 195.388 7.86837 194.908 7.54195L194.402 8.28618C194.703 8.49101 194.919 8.78028 195.047 9.17721L195.903 8.90091ZM194.913 7.54541C194.426 7.2045 193.791 7.04417 193.053 7.01901L193.022 7.91849C193.659 7.94021 194.102 8.07675 194.397 8.28272L194.913 7.54541ZM193.052 7.01897C192.234 6.99341 191.506 7.15486 190.892 7.53023L191.362 8.2979C191.796 8.03264 192.341 7.89722 193.023 7.91853L193.052 7.01897ZM190.892 7.53023C190.308 7.88774 189.826 8.36693 189.447 8.96118L190.206 9.44507C190.515 8.96119 190.9 8.58101 191.362 8.2979L190.892 7.53023ZM189.445 8.96512C189.087 9.53927 188.805 10.1653 188.599 10.8414L189.46 11.1039C189.645 10.4988 189.894 9.9451 190.208 9.44113L189.445 8.96512ZM188.598 10.8463C188.405 11.5049 188.26 12.1534 188.163 12.7918L189.053 12.927C189.143 12.331 189.279 11.7217 189.462 11.0991L188.598 10.8463ZM188.162 12.7993L187.998 14.0181L188.89 14.1382L189.054 12.9194L188.162 12.7993ZM187.997 14.0232C187.933 14.5458 187.889 15.1212 187.865 15.7485L188.765 15.7827C188.788 15.1757 188.83 14.6261 188.89 14.1331L187.997 14.0232ZM187.865 15.7483C187.84 16.3939 187.894 17.0152 188.028 17.6106L188.906 17.4128C188.79 16.8989 188.742 16.3561 188.765 15.7829L187.865 15.7483ZM188.028 17.6106C188.17 18.2378 188.448 18.7762 188.872 19.2093L189.515 18.5798C189.22 18.2785 189.015 17.895 188.906 17.4128L188.028 17.6106ZM188.876 19.2127C189.343 19.6803 190.005 19.8928 190.784 19.9185L190.814 19.019C190.171 18.9978 189.763 18.8275 189.512 18.5763L188.876 19.2127ZM190.784 19.9185C191.542 19.9438 192.222 19.8268 192.809 19.5468L192.422 18.7345C191.993 18.9388 191.463 19.0406 190.814 19.019L190.784 19.9185ZM192.807 19.5479C193.397 19.2708 193.878 18.8571 194.243 18.3135L193.496 17.8115C193.221 18.221 192.866 18.5261 192.424 18.7333L192.807 19.5479ZM194.24 18.3177C194.606 17.7861 194.865 17.1603 195.024 16.4497L194.145 16.2534C194.007 16.8709 193.789 17.3858 193.499 17.8073L194.24 18.3177ZM211.52 19.2578L211.964 19.3355L212.056 18.8078H211.52V19.2578ZM211.04 22V22.45H211.418L211.483 22.0777L211.04 22ZM202.216 22L201.772 21.9242L201.682 22.45H202.216V22ZM202.684 19.2578V18.8078H202.305L202.241 19.182L202.684 19.2578ZM206.305 4.9375L206.749 5.01454L206.84 4.4875H206.305V4.9375ZM203.341 22V22.45H203.719L203.784 22.077L203.341 22ZM199.907 22L199.464 21.9233L199.372 22.45H199.907V22ZM202.86 4.9375V4.4875H202.481L202.417 4.86076L202.86 4.9375ZM211.649 11.8867L212.092 11.9645L212.185 11.4367H211.649V11.8867ZM211.18 14.5586V15.0086H211.558L211.624 14.6364L211.18 14.5586ZM203.505 14.5586L203.061 14.4808L202.969 15.0086H203.505V14.5586ZM203.973 11.8867V11.4367H203.596L203.53 11.809L203.973 11.8867ZM213.981 4.9375L214.425 5.01484L214.517 4.4875H213.981V4.9375ZM213.501 7.69141V8.14141H213.879L213.944 7.76875L213.501 7.69141ZM204.688 7.69141L204.245 7.61224L204.151 8.14141H204.688V7.69141ZM205.18 4.9375V4.4875H204.804L204.737 4.85833L205.18 4.9375ZM211.077 19.1801L210.597 21.9223L211.483 22.0777L211.964 19.3355L211.077 19.1801ZM211.04 21.55H202.216V22.45H211.04V21.55ZM202.659 22.0758L203.128 19.3336L202.241 19.182L201.772 21.9242L202.659 22.0758ZM202.684 19.7078H211.52V18.8078H202.684V19.7078ZM205.862 4.86046L202.897 21.923L203.784 22.077L206.749 5.01454L205.862 4.86046ZM203.341 21.55H199.907V22.45H203.341V21.55ZM200.35 22.0767L203.304 5.01424L202.417 4.86076L199.464 21.9233L200.35 22.0767ZM202.86 5.3875H206.305V4.4875H202.86V5.3875ZM211.206 11.809L210.737 14.4808L211.624 14.6364L212.092 11.9645L211.206 11.809ZM211.18 14.1086H203.505V15.0086H211.18V14.1086ZM203.948 14.6364L204.417 11.9645L203.53 11.809L203.061 14.4808L203.948 14.6364ZM203.973 12.3367H211.649V11.4367H203.973V12.3367ZM213.538 4.86016L213.057 7.61406L213.944 7.76875L214.425 5.01484L213.538 4.86016ZM213.501 7.24141H204.688V8.14141H213.501V7.24141ZM205.131 7.77058L205.623 5.01667L204.737 4.85833L204.245 7.61224L205.131 7.77058ZM205.18 5.3875H213.981V4.4875H205.18V5.3875ZM230.062 4.9375L230.505 5.01454L230.597 4.4875H230.062V4.9375ZM227.097 22V22.45H227.475L227.54 22.077L227.097 22ZM223.769 22L223.352 22.1701L223.466 22.45H223.769V22ZM219.046 10.4336L219.463 10.2635L218.87 8.81249L218.603 10.3568L219.046 10.4336ZM217.042 22V22.45H217.421L217.486 22.0768L217.042 22ZM213.609 22L213.165 21.9233L213.074 22.45H213.609V22ZM216.562 4.9375V4.4875H216.183L216.118 4.86076L216.562 4.9375ZM219.902 4.9375L220.318 4.76718L220.204 4.4875H219.902V4.9375ZM224.636 16.5156L224.219 16.6859L224.812 18.1357L225.079 16.5924L224.636 16.5156ZM226.64 4.9375V4.4875H226.261L226.196 4.86076L226.64 4.9375ZM229.618 4.86046L226.654 21.923L227.54 22.077L230.505 5.01454L229.618 4.86046ZM227.097 21.55H223.769V22.45H227.097V21.55ZM224.185 21.8299L219.463 10.2635L218.629 10.6037L223.352 22.1701L224.185 21.8299ZM218.603 10.3568L216.599 21.9232L217.486 22.0768L219.489 10.5104L218.603 10.3568ZM217.042 21.55H213.609V22.45H217.042V21.55ZM214.052 22.0767L217.005 5.01424L216.118 4.86076L213.165 21.9233L214.052 22.0767ZM216.562 5.3875H219.902V4.4875H216.562V5.3875ZM219.485 5.10782L224.219 16.6859L225.052 16.3453L220.318 4.76718L219.485 5.10782ZM225.079 16.5924L227.083 5.01424L226.196 4.86076L224.193 16.4389L225.079 16.5924ZM226.64 5.3875H230.062V4.4875H226.64V5.3875ZM240.67 4.9375L241.113 5.01424L241.204 4.4875H240.67V4.9375ZM237.716 22V22.45H238.095L238.16 22.0767L237.716 22ZM234.283 22L233.839 21.923L233.748 22.45H234.283V22ZM237.248 4.9375V4.4875H236.869L236.804 4.86046L237.248 4.9375ZM245.755 4.9375L246.199 5.01484L246.291 4.4875H245.755V4.9375ZM245.275 7.69141V8.14141H245.653L245.718 7.76875L245.275 7.69141ZM231.763 7.69141L231.32 7.61406L231.228 8.14141H231.763V7.69141ZM232.244 4.9375V4.4875H231.865L231.8 4.86016L232.244 4.9375ZM240.226 4.86076L237.273 21.9233L238.16 22.0767L241.113 5.01424L240.226 4.86076ZM237.716 21.55H234.283V22.45H237.716V21.55ZM234.726 22.077L237.691 5.01454L236.804 4.86046L233.839 21.923L234.726 22.077ZM237.248 5.3875H240.67V4.4875H237.248V5.3875ZM245.312 4.86016L244.832 7.61406L245.718 7.76875L246.199 5.01484L245.312 4.86016ZM245.275 7.24141H231.763V8.14141H245.275V7.24141ZM232.207 7.76875L232.687 5.01484L231.8 4.86016L231.32 7.61406L232.207 7.76875ZM232.244 5.3875H245.755V4.4875H232.244V5.3875ZM256.938 19.2578L257.381 19.3355L257.473 18.8078H256.938V19.2578ZM256.457 22V22.45H256.835L256.9 22.0777L256.457 22ZM247.633 22L247.189 21.9242L247.099 22.45H247.633V22ZM248.102 19.2578V18.8078H247.722L247.658 19.182L248.102 19.2578ZM251.723 4.9375L252.166 5.01454L252.258 4.4875H251.723V4.9375ZM248.758 22V22.45H249.136L249.201 22.077L248.758 22ZM245.324 22L244.881 21.9233L244.79 22.45H245.324V22ZM248.277 4.9375V4.4875H247.899L247.834 4.86076L248.277 4.9375ZM257.066 11.8867L257.51 11.9645L257.602 11.4367H257.066V11.8867ZM256.598 14.5586V15.0086H256.976L257.041 14.6364L256.598 14.5586ZM248.922 14.5586L248.479 14.4808L248.386 15.0086H248.922V14.5586ZM249.391 11.8867V11.4367H249.013L248.947 11.809L249.391 11.8867ZM259.398 4.9375L259.842 5.01484L259.934 4.4875H259.398V4.9375ZM258.918 7.69141V8.14141H259.296L259.361 7.76875L258.918 7.69141ZM250.105 7.69141L249.662 7.61224L249.568 8.14141H250.105V7.69141ZM250.598 4.9375V4.4875H250.221L250.155 4.85833L250.598 4.9375ZM256.494 19.1801L256.014 21.9223L256.9 22.0777L257.381 19.3355L256.494 19.1801ZM256.457 21.55H247.633V22.45H256.457V21.55ZM248.076 22.0758L248.545 19.3336L247.658 19.182L247.189 21.9242L248.076 22.0758ZM248.102 19.7078H256.938V18.8078H248.102V19.7078ZM251.279 4.86046L248.314 21.923L249.201 22.077L252.166 5.01454L251.279 4.86046ZM248.758 21.55H245.324V22.45H248.758V21.55ZM245.768 22.0767L248.721 5.01424L247.834 4.86076L244.881 21.9233L245.768 22.0767ZM248.277 5.3875H251.723V4.4875H248.277V5.3875ZM256.623 11.809L256.154 14.4808L257.041 14.6364L257.51 11.9645L256.623 11.809ZM256.598 14.1086H248.922V15.0086H256.598V14.1086ZM249.365 14.6364L249.834 11.9645L248.947 11.809L248.479 14.4808L249.365 14.6364ZM249.391 12.3367H257.066V11.4367H249.391V12.3367ZM258.955 4.86016L258.475 7.61406L259.361 7.76875L259.842 5.01484L258.955 4.86016ZM258.918 7.24141H250.105V8.14141H258.918V7.24141ZM250.548 7.77058L251.041 5.01667L250.155 4.85833L249.662 7.61224L250.548 7.77058ZM250.598 5.3875H259.398V4.4875H250.598V5.3875ZM261.979 4.9375L261.98 4.4875L261.6 4.48676L261.536 4.86076L261.979 4.9375ZM267.991 4.94922L267.997 4.49923L267.992 4.49922L267.991 4.94922ZM270.815 5.52344L270.635 5.93606L270.637 5.93666L270.815 5.52344ZM272.795 7.17578L272.416 7.4179L272.418 7.42074L272.795 7.17578ZM273.393 9.97656L273.841 10.0142L273.842 10.0075L273.393 9.97656ZM272.713 12.332L272.325 12.1047L272.323 12.1083L272.713 12.332ZM271.225 13.9609L270.964 13.5944L270.962 13.596L271.225 13.9609ZM269.092 15.1094L268.926 14.6913L268.911 14.697L268.897 14.7038L269.092 15.1094ZM267.897 15.6836V16.1336H267.999L268.092 16.0892L267.897 15.6836ZM262.342 15.6836L261.899 15.6078L261.809 16.1336H262.342V15.6836ZM262.811 12.9414L262.814 12.4914L262.432 12.4891L262.367 12.8656L262.811 12.9414ZM266.631 12.9648L266.628 13.4149L266.637 13.4148L266.631 12.9648ZM269.35 11.7227L268.993 11.4483L268.993 11.4493L269.35 11.7227ZM269.936 10.2461L269.49 10.1844L269.49 10.1858L269.936 10.2461ZM269.83 8.92188L269.406 9.07213L269.409 9.07988L269.83 8.92188ZM267.885 7.70312L267.899 7.25318L267.887 7.25313L267.885 7.70312ZM264.944 7.69141L264.946 7.24141L264.565 7.2399L264.5 7.61443L264.944 7.69141ZM262.459 22V22.45H262.838L262.903 22.077L262.459 22ZM259.026 22L258.582 21.9233L258.491 22.45H259.026V22ZM268.366 22L267.937 22.1385L268.038 22.45H268.366V22ZM265.905 14.3945L265.902 13.9445L265.287 13.9487L265.477 14.5331L265.905 14.3945ZM269.362 14.3711L269.785 14.2196L269.678 13.9189L269.359 13.9211L269.362 14.3711ZM272.022 21.8125H272.472V21.7345L272.446 21.661L272.022 21.8125ZM272.022 22V22.45H272.472V22H272.022ZM261.978 5.3875L267.99 5.39922L267.992 4.49922L261.98 4.4875L261.978 5.3875ZM267.984 5.39917C268.971 5.41401 269.853 5.5955 270.635 5.93606L270.994 5.11082C270.089 4.717 269.088 4.51567 267.997 4.49927L267.984 5.39917ZM270.637 5.93666C271.411 6.27063 271.999 6.76438 272.416 7.4179L273.175 6.93367C272.654 6.11844 271.922 5.51062 270.993 5.11022L270.637 5.93666ZM272.418 7.42074C272.827 8.05191 273.017 8.8811 272.944 9.9456L273.842 10.0075C273.925 8.8064 273.716 7.76841 273.173 6.93082L272.418 7.42074ZM272.945 9.93888C272.871 10.8184 272.658 11.5349 272.325 12.1047L273.102 12.5594C273.518 11.8479 273.759 10.9941 273.841 10.0142L272.945 9.93888ZM272.323 12.1083C271.989 12.6903 271.538 13.1853 270.964 13.5944L271.486 14.3274C272.162 13.8459 272.703 13.255 273.104 12.5558L272.323 12.1083ZM270.962 13.596C270.378 14.017 269.701 14.3828 268.926 14.6913L269.259 15.5275C270.093 15.1953 270.837 14.7955 271.488 14.3259L270.962 13.596ZM268.897 14.7038L267.702 15.278L268.092 16.0892L269.287 15.515L268.897 14.7038ZM267.897 15.2336H262.342V16.1336H267.897V15.2336ZM262.786 15.7594L263.255 13.0172L262.367 12.8656L261.899 15.6078L262.786 15.7594ZM262.808 13.3914L266.628 13.4148L266.634 12.5149L262.814 12.4914L262.808 13.3914ZM266.637 13.4148C267.263 13.4062 267.844 13.2859 268.375 13.0471L268.005 12.2264C267.598 12.4094 267.141 12.5078 266.625 12.5149L266.637 13.4148ZM268.375 13.0471C268.91 12.8063 269.356 12.4553 269.707 11.996L268.993 11.4493C268.734 11.7869 268.408 12.0453 268.005 12.2264L268.375 13.0471ZM269.707 11.997C270.073 11.5202 270.295 10.9515 270.382 10.3064L269.49 10.1858C269.421 10.697 269.252 11.1126 268.993 11.4483L269.707 11.997ZM270.382 10.3078C270.459 9.74611 270.425 9.22586 270.252 8.76387L269.409 9.07988C269.517 9.36789 269.553 9.73045 269.49 10.1844L270.382 10.3078ZM270.255 8.77164C270.089 8.30462 269.796 7.93047 269.382 7.66444L268.896 8.4215C269.138 8.57734 269.306 8.78913 269.406 9.07211L270.255 8.77164ZM269.382 7.66444C268.968 7.39794 268.464 7.27073 267.899 7.25334L267.871 8.15291C268.322 8.16677 268.654 8.26612 268.896 8.4215L269.382 7.66444ZM267.887 7.25313L264.946 7.24141L264.942 8.1414L267.883 8.15312L267.887 7.25313ZM264.5 7.61443L262.016 21.923L262.903 22.077L265.387 7.76839L264.5 7.61443ZM262.459 21.55H259.026V22.45H262.459V21.55ZM259.469 22.0767L262.422 5.01424L261.536 4.86076L258.582 21.9233L259.469 22.0767ZM268.794 21.8615L266.333 14.256L265.477 14.5331L267.937 22.1385L268.794 21.8615ZM265.908 14.8445L269.365 14.8211L269.359 13.9211L265.902 13.9445L265.908 14.8445ZM268.938 14.5226L271.598 21.964L272.446 21.661L269.785 14.2196L268.938 14.5226ZM271.572 21.8125V22H272.472V21.8125H271.572ZM272.022 21.55H268.366V22.45H272.022V21.55Z" fill="#FA00CE"/>
</svg>
