<svg width="406" height="41" viewBox="0 0 406 41" fill="none" xmlns="http://www.w3.org/2000/svg">
<path d="M9.85156 6.35937L4.12891 18H0.984375L8.58203 3.78125L10.5938 3.78125L9.85156 6.35937ZM10.9844 18L9.24609 6.05664L9.35352 3.78125L11.2383 3.78125L13.9238 18L10.9844 18ZM11.707 12.707L11.3066 15.002L3.99219 15.002L4.39258 12.707L11.707 12.707ZM26.1426 15.7148L25.752 18L15.957 18L16.3574 15.7148L26.1426 15.7148ZM27.7637 5.53906L17.3145 18H15.2148L15.5371 16.1934L26.0352 3.78125L28.0762 3.78125L27.7637 5.53906ZM27.0996 3.78125L26.6992 6.07617L17.2852 6.07617L17.6953 3.78125L27.0996 3.78125ZM38.7129 9.57227L38.3125 11.8574L31.0957 11.8574L31.4961 9.57227L38.7129 9.57227ZM33.3613 3.78125L30.8906 18H28.0293L30.4902 3.78125L33.3613 3.78125ZM41.7402 3.78125L39.2695 18L36.4277 18L38.8887 3.78125L41.7402 3.78125ZM46.2832 3.78125L48.0312 10.2461L52.0254 3.78125L55.2773 3.78125L49.0664 12.9609L48.207 18L45.2969 18L46.2246 12.6777L43.2656 3.79102L46.2832 3.78125ZM60.8945 12.9414L57.2129 12.9316L57.6133 10.6465L60.9922 10.6562C61.474 10.6562 61.9167 10.5716 62.3203 10.4023C62.724 10.2266 63.056 9.97266 63.3164 9.64062C63.5768 9.30859 63.7428 8.89193 63.8145 8.39062C63.8796 7.96745 63.8568 7.58659 63.7461 7.24805C63.6354 6.90951 63.4401 6.63607 63.1602 6.42773C62.8802 6.2194 62.5189 6.10547 62.0762 6.08594L59.4102 6.07617L57.3398 18L54.4785 18L56.9395 3.78125L62.1641 3.79102C63.069 3.81055 63.8763 4.00586 64.5859 4.37695C65.2956 4.74154 65.8424 5.26237 66.2266 5.93945C66.6172 6.61003 66.7734 7.42057 66.6953 8.37109C66.6107 9.40625 66.2884 10.2624 65.7285 10.9395C65.1686 11.6165 64.4622 12.1211 63.6094 12.4531C62.763 12.7786 61.8581 12.9414 60.8945 12.9414ZM73.5234 6.35937L67.8008 18H64.6562L72.2539 3.78125L74.2656 3.78125L73.5234 6.35937ZM74.6562 18L72.918 6.05664L73.0254 3.78125L74.9102 3.78125L77.5957 18H74.6562ZM75.3789 12.707L74.9785 15.002L67.6641 15.002L68.0645 12.707L75.3789 12.707Z" fill="white"/>
<path d="M9.85156 6.35937L10.2554 6.55791L10.273 6.52215L10.284 6.48386L9.85156 6.35937ZM4.12891 18V18.45L4.40912 18.45L4.53274 18.1985L4.12891 18ZM0.984375 18L0.587482 17.7879L0.233708 18.45H0.984375V18ZM8.58203 3.78125V3.33125H8.31227L8.18514 3.56917L8.58203 3.78125ZM10.5938 3.78125L11.0262 3.90574L11.1916 3.33125L10.5938 3.33125V3.78125ZM10.9844 18L10.5391 18.0648L10.5951 18.45H10.9844V18ZM9.24609 6.05664L8.79659 6.03542L8.79455 6.07864L8.80079 6.12145L9.24609 6.05664ZM9.35352 3.78125V3.33125L8.92426 3.33125L8.90402 3.76003L9.35352 3.78125ZM11.2383 3.78125L11.6805 3.69773L11.6112 3.33125L11.2383 3.33125V3.78125ZM13.9238 18V18.45H14.4668L14.366 17.9165L13.9238 18ZM11.707 12.707L12.1503 12.7844L12.2423 12.257H11.707V12.707ZM11.3066 15.002V15.452H11.6849L11.7499 15.0793L11.3066 15.002ZM3.99219 15.002L3.54888 14.9246L3.45688 15.452H3.99219V15.002ZM4.39258 12.707V12.257H4.01429L3.94927 12.6297L4.39258 12.707ZM9.44772 6.16084L3.72507 17.8015L4.53274 18.1985L10.2554 6.55791L9.44772 6.16084ZM4.12891 17.55H0.984375V18.45H4.12891V17.55ZM1.38127 18.2121L8.97892 3.99333L8.18514 3.56917L0.587482 17.7879L1.38127 18.2121ZM8.58203 4.23125L10.5938 4.23125V3.33125L8.58203 3.33125V4.23125ZM10.1613 3.65676L9.41913 6.23489L10.284 6.48386L11.0262 3.90574L10.1613 3.65676ZM11.4297 17.9352L9.6914 5.99183L8.80079 6.12145L10.5391 18.0648L11.4297 17.9352ZM9.69559 6.07786L9.80301 3.80247L8.90402 3.76003L8.79659 6.03542L9.69559 6.07786ZM9.35352 4.23125L11.2383 4.23125V3.33125L9.35352 3.33125V4.23125ZM10.7961 3.86477L13.4816 18.0835L14.366 17.9165L11.6805 3.69773L10.7961 3.86477ZM13.9238 17.55L10.9844 17.55V18.45L13.9238 18.45V17.55ZM11.2637 12.6297L10.8633 14.9246L11.7499 15.0793L12.1503 12.7844L11.2637 12.6297ZM11.3066 14.552L3.99219 14.552V15.452L11.3066 15.452V14.552ZM4.43549 15.0793L4.83588 12.7844L3.94927 12.6297L3.54888 14.9246L4.43549 15.0793ZM4.39258 13.157L11.707 13.157V12.257L4.39258 12.257V13.157ZM26.1426 15.7148L26.5861 15.7907L26.676 15.2648L26.1426 15.2648V15.7148ZM25.752 18V18.45H26.1316L26.1955 18.0758L25.752 18ZM15.957 18L15.5138 17.9223L15.4213 18.45H15.957V18ZM16.3574 15.7148V15.2648H15.9794L15.9142 15.6372L16.3574 15.7148ZM27.7637 5.53906L28.1085 5.82821L28.1857 5.73613L28.2067 5.61783L27.7637 5.53906ZM17.3145 18V18.45H17.5244L17.6593 18.2891L17.3145 18ZM15.2148 18L14.7718 17.921L14.6775 18.45H15.2148V18ZM15.5371 16.1934L15.1935 15.9028L15.1154 15.9952L15.0941 16.1143L15.5371 16.1934ZM26.0352 3.78125V3.33125L25.8264 3.33125L25.6916 3.49065L26.0352 3.78125ZM28.0762 3.78125L28.5192 3.86001L28.6132 3.33125L28.0762 3.33125V3.78125ZM27.0996 3.78125L27.5429 3.85859L27.6349 3.33125H27.0996V3.78125ZM26.6992 6.07617V6.52617L27.0775 6.52617L27.1425 6.15351L26.6992 6.07617ZM17.2852 6.07617L16.8422 5.997L16.7476 6.52617H17.2852V6.07617ZM17.6953 3.78125V3.33125H17.3186L17.2523 3.70208L17.6953 3.78125ZM25.699 15.639L25.3084 17.9242L26.1955 18.0758L26.5861 15.7907L25.699 15.639ZM25.752 17.55L15.957 17.55V18.45L25.752 18.45V17.55ZM16.4003 18.0777L16.8007 15.7925L15.9142 15.6372L15.5138 17.9223L16.4003 18.0777ZM16.3574 16.1648L26.1426 16.1648V15.2648L16.3574 15.2648V16.1648ZM27.4189 5.24992L16.9696 17.7109L17.6593 18.2891L28.1085 5.82821L27.4189 5.24992ZM17.3145 17.55H15.2148V18.45H17.3145V17.55ZM15.6579 18.079L15.9801 16.2724L15.0941 16.1143L14.7718 17.921L15.6579 18.079ZM15.8807 16.484L26.3787 4.07185L25.6916 3.49065L15.1935 15.9028L15.8807 16.484ZM26.0352 4.23125L28.0762 4.23125V3.33125L26.0352 3.33125V4.23125ZM27.6331 3.70249L27.3206 5.4603L28.2067 5.61783L28.5192 3.86001L27.6331 3.70249ZM26.6563 3.70391L26.2559 5.99883L27.1425 6.15351L27.5429 3.85859L26.6563 3.70391ZM26.6992 5.62617L17.2852 5.62617V6.52617L26.6992 6.52617V5.62617ZM17.7281 6.15534L18.1383 3.86042L17.2523 3.70208L16.8422 5.997L17.7281 6.15534ZM17.6953 4.23125L27.0996 4.23125V3.33125L17.6953 3.33125V4.23125ZM38.7129 9.57227L39.1561 9.64993L39.2486 9.12227H38.7129V9.57227ZM38.3125 11.8574V12.3074H38.6905L38.7557 11.9351L38.3125 11.8574ZM31.0957 11.8574L30.6525 11.7798L30.56 12.3074L31.0957 12.3074V11.8574ZM31.4961 9.57227V9.12227H31.1181L31.0528 9.4946L31.4961 9.57227ZM33.3613 3.78125L33.8047 3.85829L33.8963 3.33125L33.3613 3.33125V3.78125ZM30.8906 18V18.45H31.2692L31.334 18.077L30.8906 18ZM28.0293 18L27.5859 17.9233L27.4947 18.45H28.0293V18ZM30.4902 3.78125V3.33125H30.1114L30.0468 3.70451L30.4902 3.78125ZM41.7402 3.78125L42.1836 3.85829L42.2752 3.33125L41.7402 3.33125V3.78125ZM39.2695 18V18.45H39.6481L39.7129 18.077L39.2695 18ZM36.4277 18L35.9843 17.9233L35.8932 18.45H36.4277V18ZM38.8887 3.78125V3.33125L38.5099 3.33125L38.4453 3.70451L38.8887 3.78125ZM38.2696 9.4946L37.8693 11.7798L38.7557 11.9351L39.1561 9.64993L38.2696 9.4946ZM38.3125 11.4074L31.0957 11.4074V12.3074L38.3125 12.3074V11.4074ZM31.5389 11.9351L31.9393 9.64993L31.0528 9.4946L30.6525 11.7798L31.5389 11.9351ZM31.4961 10.0223L38.7129 10.0223V9.12227L31.4961 9.12227V10.0223ZM32.918 3.70421L30.4473 17.923L31.334 18.077L33.8047 3.85829L32.918 3.70421ZM30.8906 17.55H28.0293V18.45H30.8906V17.55ZM28.4727 18.0767L30.9336 3.85799L30.0468 3.70451L27.5859 17.9233L28.4727 18.0767ZM30.4902 4.23125L33.3613 4.23125V3.33125L30.4902 3.33125V4.23125ZM41.2969 3.70421L38.8262 17.923L39.7129 18.077L42.1836 3.85829L41.2969 3.70421ZM39.2695 17.55L36.4277 17.55V18.45L39.2695 18.45V17.55ZM36.8711 18.0767L39.3321 3.85799L38.4453 3.70451L35.9843 17.9233L36.8711 18.0767ZM38.8887 4.23125L41.7402 4.23125V3.33125L38.8887 3.33125V4.23125ZM46.2832 3.78125L46.7176 3.66379L46.6274 3.33013L46.2817 3.33125L46.2832 3.78125ZM48.0312 10.2461L47.5969 10.3636L47.868 11.3664L48.4141 10.4826L48.0312 10.2461ZM52.0254 3.78125V3.33125L51.7745 3.33125L51.6426 3.54473L52.0254 3.78125ZM55.2773 3.78125L55.6501 4.03342L56.1251 3.33125L55.2773 3.33125V3.78125ZM49.0664 12.9609L48.6937 12.7088L48.6392 12.7894L48.6228 12.8853L49.0664 12.9609ZM48.207 18V18.45H48.5868L48.6506 18.0757L48.207 18ZM45.2969 18L44.8536 17.9227L44.7617 18.45H45.2969V18ZM46.2246 12.6777L46.6679 12.755L46.6874 12.6432L46.6516 12.5356L46.2246 12.6777ZM43.2656 3.79102L43.2642 3.34102L42.6422 3.34303L42.8387 3.93318L43.2656 3.79102ZM45.8488 3.89871L47.5969 10.3636L48.4656 10.1286L46.7176 3.66379L45.8488 3.89871ZM48.4141 10.4826L52.4082 4.01777L51.6426 3.54473L47.6484 10.0096L48.4141 10.4826ZM52.0254 4.23125L55.2773 4.23125V3.33125L52.0254 3.33125V4.23125ZM54.9046 3.52908L48.6937 12.7088L49.4391 13.2131L55.6501 4.03342L54.9046 3.52908ZM48.6228 12.8853L47.7634 17.9243L48.6506 18.0757L49.51 13.0366L48.6228 12.8853ZM48.207 17.55L45.2969 17.55V18.45L48.207 18.45V17.55ZM45.7402 18.0773L46.6679 12.755L45.7813 12.6005L44.8536 17.9227L45.7402 18.0773ZM46.6516 12.5356L43.6926 3.64885L42.8387 3.93318L45.7977 12.8199L46.6516 12.5356ZM43.2671 4.24101L46.2847 4.23125L46.2817 3.33125L43.2642 3.34102L43.2671 4.24101ZM60.8945 12.9414L60.8933 13.3914H60.8945V12.9414ZM57.2129 12.9316L56.7696 12.854L56.6774 13.3802L57.2117 13.3816L57.2129 12.9316ZM57.6133 10.6465L57.6146 10.1965L57.2355 10.1954L57.17 10.5688L57.6133 10.6465ZM60.9922 10.6562L60.9909 11.1062H60.9922V10.6562ZM62.3203 10.4023L62.4944 10.8174L62.5 10.8149L62.3203 10.4023ZM63.8145 8.39062L63.3697 8.3222L63.369 8.32699L63.8145 8.39062ZM62.0762 6.08594L62.096 5.63637L62.0869 5.63597L62.0778 5.63594L62.0762 6.08594ZM59.4102 6.07617L59.4118 5.62617L59.0318 5.62478L58.9668 5.99919L59.4102 6.07617ZM57.3398 18V18.45H57.7184L57.7832 18.077L57.3398 18ZM54.4785 18L54.0351 17.9233L53.9439 18.45H54.4785V18ZM56.9395 3.78125L56.9403 3.33125L56.5608 3.33054L56.496 3.70451L56.9395 3.78125ZM62.1641 3.79102L62.1738 3.34103L62.1649 3.34102L62.1641 3.79102ZM64.5859 4.37695L64.3774 4.77573L64.3803 4.77722L64.5859 4.37695ZM66.2266 5.93945L65.8351 6.16151L65.8377 6.16596L66.2266 5.93945ZM66.6953 8.37109L66.2468 8.33423L66.2468 8.33442L66.6953 8.37109ZM63.6094 12.4531L63.7709 12.8731L63.7726 12.8725L63.6094 12.4531ZM60.8957 12.4914L57.2141 12.4816L57.2117 13.3816L60.8933 13.3914L60.8957 12.4914ZM57.6561 13.0093L58.0565 10.7241L57.17 10.5688L56.7696 12.854L57.6561 13.0093ZM57.612 11.0965L60.9909 11.1062L60.9935 10.2063L57.6146 10.1965L57.612 11.0965ZM60.9922 11.1062C61.5277 11.1062 62.0303 11.0119 62.4943 10.8173L62.1463 9.98736C61.8031 10.1313 61.4202 10.2063 60.9922 10.2063V11.1062ZM62.5 10.8149C62.969 10.6107 63.362 10.3117 63.6705 9.91834L62.9623 9.36291C62.75 9.63364 62.4789 9.84245 62.1406 9.98977L62.5 10.8149ZM63.6705 9.91834C63.9885 9.51285 64.1794 9.01806 64.2599 8.45426L63.369 8.32699C63.3063 8.7658 63.1651 9.10434 62.9623 9.36291L63.6705 9.91834ZM64.2592 8.45905C64.3329 7.98004 64.3104 7.52613 64.1738 7.10821L63.3184 7.38788C63.4031 7.64705 63.4262 7.95485 63.3697 8.3222L64.2592 8.45905ZM64.1738 7.10821C64.0349 6.68324 63.785 6.3318 63.4288 6.06673L62.8915 6.78874C63.0952 6.94034 63.236 7.13577 63.3184 7.38788L64.1738 7.10821ZM63.4288 6.06673C63.0594 5.7918 62.6044 5.6588 62.096 5.63637L62.0563 6.5355C62.4333 6.55213 62.701 6.647 62.8915 6.78874L63.4288 6.06673ZM62.0778 5.63594L59.4118 5.62617L59.4085 6.52617L62.0745 6.53593L62.0778 5.63594ZM58.9668 5.99919L56.8965 17.923L57.7832 18.077L59.8535 6.15315L58.9668 5.99919ZM57.3398 17.55L54.4785 17.55V18.45L57.3398 18.45V17.55ZM54.9219 18.0767L57.3829 3.85799L56.496 3.70451L54.0351 17.9233L54.9219 18.0767ZM56.9386 4.23125L62.1632 4.24101L62.1649 3.34102L56.9403 3.33125L56.9386 4.23125ZM62.1544 4.24091C62.9991 4.25914 63.7368 4.44073 64.3774 4.77572L64.7945 3.97819C64.0158 3.57099 63.139 3.36195 62.1738 3.34112L62.1544 4.24091ZM64.3803 4.77722C65.014 5.10281 65.4954 5.56263 65.8352 6.1615L66.618 5.71741C66.1895 4.96211 65.5771 4.38027 64.7916 3.97669L64.3803 4.77722ZM65.8377 6.16596C66.1723 6.74027 66.3192 7.45426 66.2468 8.33423L67.1438 8.40796C67.2277 7.38689 67.0621 6.47978 66.6154 5.71295L65.8377 6.16596ZM66.2468 8.33442C66.1683 9.2949 65.8728 10.0588 65.3817 10.6527L66.0753 11.2262C66.704 10.466 67.0531 9.5176 67.1438 8.40776L66.2468 8.33442ZM65.3817 10.6527C64.8728 11.2681 64.2306 11.7284 63.4461 12.0338L63.7726 12.8725C64.6939 12.5138 65.4645 11.9649 66.0753 11.2262L65.3817 10.6527ZM63.4478 12.0331C62.6562 12.3376 61.8063 12.4914 60.8945 12.4914V13.3914C61.9098 13.3914 62.8699 13.2197 63.7709 12.8731L63.4478 12.0331ZM73.5234 6.35937L73.9273 6.55791L73.9449 6.52215L73.9559 6.48386L73.5234 6.35937ZM67.8008 18V18.45H68.081L68.2046 18.1985L67.8008 18ZM64.6562 18L64.2594 17.7879L63.9056 18.45L64.6562 18.45V18ZM72.2539 3.78125V3.33125L71.9841 3.33125L71.857 3.56917L72.2539 3.78125ZM74.2656 3.78125L74.6981 3.90574L74.8634 3.33125L74.2656 3.33125V3.78125ZM74.6562 18L74.2109 18.0648L74.267 18.45H74.6562V18ZM72.918 6.05664L72.4685 6.03542L72.4664 6.07864L72.4727 6.12145L72.918 6.05664ZM73.0254 3.78125V3.33125L72.5961 3.33125L72.5759 3.76003L73.0254 3.78125ZM74.9102 3.78125L75.3523 3.69773L75.2831 3.33125L74.9102 3.33125V3.78125ZM77.5957 18V18.45H78.1386L78.0379 17.9165L77.5957 18ZM75.3789 12.707L75.8222 12.7844L75.9142 12.257H75.3789V12.707ZM74.9785 15.002V15.452H75.3568L75.4218 15.0793L74.9785 15.002ZM67.6641 15.002L67.2208 14.9246L67.1288 15.452H67.6641V15.002ZM68.0645 12.707V12.257L67.6862 12.257L67.6211 12.6297L68.0645 12.707ZM73.1196 6.16084L67.3969 17.8015L68.2046 18.1985L73.9273 6.55791L73.1196 6.16084ZM67.8008 17.55H64.6562V18.45H67.8008V17.55ZM65.0531 18.2121L72.6508 3.99333L71.857 3.56917L64.2594 17.7879L65.0531 18.2121ZM72.2539 4.23125L74.2656 4.23125V3.33125L72.2539 3.33125V4.23125ZM73.8332 3.65676L73.091 6.23489L73.9559 6.48386L74.6981 3.90574L73.8332 3.65676ZM75.1016 17.9352L73.3633 5.99183L72.4727 6.12145L74.2109 18.0648L75.1016 17.9352ZM73.3675 6.07786L73.4749 3.80247L72.5759 3.76003L72.4685 6.03542L73.3675 6.07786ZM73.0254 4.23125L74.9102 4.23125V3.33125L73.0254 3.33125V4.23125ZM74.468 3.86477L77.1535 18.0835L78.0379 17.9165L75.3523 3.69773L74.468 3.86477ZM77.5957 17.55H74.6562V18.45H77.5957V17.55ZM74.9356 12.6297L74.5352 14.9246L75.4218 15.0793L75.8222 12.7844L74.9356 12.6297ZM74.9785 14.552L67.6641 14.552V15.452L74.9785 15.452V14.552ZM68.1074 15.0793L68.5078 12.7844L67.6211 12.6297L67.2208 14.9246L68.1074 15.0793ZM68.0645 13.157L75.3789 13.157V12.257L68.0645 12.257V13.157Z" fill="white"/>
<path d="M92.0234 3.78125L94.3477 3.78125L96.0762 14.1914L101.418 3.78125L103.938 3.78125L96.4961 18L94.543 18L92.0234 3.78125ZM90.666 3.78125L93.0879 3.78125L91.75 14.084L91.0566 18L88.2051 18L90.666 3.78125ZM102.766 3.78125L105.197 3.78125L102.736 18H99.8652L100.598 13.8398L102.766 3.78125ZM115.375 15.7148L114.975 18L107.621 18L108.012 15.7148L115.375 15.7148ZM111.029 3.78125L108.559 18H105.697L108.158 3.78125L111.029 3.78125ZM115.482 9.57227L115.092 11.7988L108.695 11.7988L109.086 9.57227L115.482 9.57227ZM117.426 3.78125L117.025 6.07617L109.682 6.07617L110.092 3.78125L117.426 3.78125ZM121.52 18H118.355L118.766 15.7148L121.607 15.7344C122.493 15.7344 123.238 15.526 123.844 15.1094C124.449 14.6862 124.924 14.1328 125.27 13.4492C125.621 12.7591 125.859 12.0137 125.982 11.2129L126.07 10.5195C126.129 10.0247 126.148 9.52344 126.129 9.01562C126.109 8.5013 126.015 8.02604 125.846 7.58984C125.683 7.15365 125.423 6.79883 125.064 6.52539C124.706 6.25195 124.221 6.10547 123.609 6.08594L120.367 6.07617L120.768 3.78125L123.697 3.79102C124.648 3.81055 125.475 4.00586 126.178 4.37695C126.881 4.74154 127.457 5.23633 127.906 5.86133C128.355 6.48633 128.668 7.20247 128.844 8.00977C129.02 8.81055 129.055 9.65365 128.951 10.5391L128.873 11.2324C128.743 12.1829 128.473 13.0716 128.062 13.8984C127.659 14.7253 127.135 15.4479 126.49 16.0664C125.852 16.6784 125.113 17.1569 124.273 17.502C123.434 17.8405 122.516 18.0065 121.52 18ZM122.447 3.78125L119.977 18L117.115 18L119.576 3.78125L122.447 3.78125ZM135.74 3.78125L133.279 18L130.418 18L132.889 3.78125L135.74 3.78125ZM144.238 6.35937L138.516 18L135.371 18L142.969 3.78125L144.98 3.78125L144.238 6.35937ZM145.371 18L143.633 6.05664L143.74 3.78125L145.625 3.78125L148.311 18L145.371 18ZM146.094 12.707L145.693 15.002L138.379 15.002L138.779 12.707L146.094 12.707ZM164.32 13.293L167.113 13.2539C166.99 14.3021 166.635 15.2005 166.049 15.9492C165.469 16.6914 164.74 17.2578 163.861 17.6484C162.982 18.0326 162.029 18.2148 161 18.1953C160.049 18.1758 159.249 17.974 158.598 17.5898C157.947 17.1992 157.436 16.6784 157.064 16.0273C156.693 15.3763 156.449 14.6504 156.332 13.8496C156.215 13.0488 156.208 12.2285 156.312 11.3887L156.449 10.4023C156.579 9.51693 156.817 8.66081 157.162 7.83398C157.514 7.00716 157.973 6.27148 158.539 5.62695C159.105 4.98242 159.776 4.47461 160.551 4.10352C161.326 3.73242 162.204 3.55664 163.188 3.57617C164.216 3.5957 165.085 3.81706 165.795 4.24023C166.511 4.6569 167.061 5.23958 167.445 5.98828C167.836 6.73047 168.054 7.59961 168.1 8.5957L165.258 8.58594C165.264 8.05859 165.199 7.59635 165.062 7.19922C164.932 6.79557 164.704 6.48307 164.379 6.26172C164.053 6.03385 163.604 5.91016 163.031 5.89062C162.406 5.87109 161.876 5.99479 161.439 6.26172C161.003 6.52865 160.642 6.88672 160.355 7.33594C160.076 7.78516 159.854 8.27669 159.691 8.81055C159.535 9.3444 159.418 9.86849 159.34 10.3828L159.203 11.3984C159.151 11.8216 159.115 12.2904 159.096 12.8047C159.076 13.3125 159.118 13.7975 159.223 14.2598C159.327 14.722 159.529 15.1061 159.828 15.4121C160.128 15.7116 160.574 15.8711 161.166 15.8906C161.752 15.9102 162.257 15.819 162.68 15.6172C163.109 15.4154 163.458 15.1159 163.725 14.7187C163.998 14.3216 164.197 13.8464 164.32 13.293ZM178.434 15.7148L178.033 18L170.68 18L171.07 15.7148L178.434 15.7148ZM174.088 3.78125L171.617 18L168.756 18L171.217 3.78125L174.088 3.78125ZM178.541 9.57227L178.15 11.7988L171.754 11.7988L172.145 9.57227L178.541 9.57227ZM180.484 3.78125L180.084 6.07617L172.74 6.07617L173.15 3.78125L180.484 3.78125ZM193.885 3.78125L191.414 18H188.641L184.705 8.36133L183.035 18L180.174 18L182.635 3.78125L185.418 3.78125L189.363 13.4297L191.033 3.78125L193.885 3.78125ZM202.725 3.78125L200.264 18H197.402L199.873 3.78125L202.725 3.78125ZM206.963 3.78125L206.562 6.07617L195.303 6.07617L195.703 3.78125L206.963 3.78125ZM216.281 15.7148L215.881 18L208.527 18L208.918 15.7148L216.281 15.7148ZM211.936 3.78125L209.465 18H206.604L209.064 3.78125L211.936 3.78125ZM216.389 9.57227L215.998 11.7988L209.602 11.7988L209.992 9.57227L216.389 9.57227ZM218.332 3.78125L217.932 6.07617L210.588 6.07617L210.998 3.78125L218.332 3.78125ZM220.482 3.78125L225.492 3.79102C226.358 3.80404 227.143 3.96354 227.846 4.26953C228.555 4.57552 229.105 5.03451 229.496 5.64648C229.893 6.25846 230.059 7.03646 229.994 7.98047C229.929 8.75521 229.74 9.40951 229.428 9.94336C229.122 10.4772 228.708 10.9297 228.188 11.3008C227.673 11.6719 227.081 11.9909 226.41 12.2578L225.414 12.7363L220.785 12.7363L221.176 10.4512L224.359 10.4707C224.835 10.4642 225.268 10.373 225.658 10.1973C226.049 10.0215 226.371 9.76758 226.625 9.43555C226.885 9.09701 227.048 8.68685 227.113 8.20508C227.172 7.7819 227.143 7.41406 227.025 7.10156C226.915 6.78906 226.723 6.54492 226.449 6.36914C226.176 6.19336 225.827 6.09896 225.404 6.08594L222.953 6.07617L220.883 18L218.021 18L220.482 3.78125ZM225.805 18L223.754 11.6621L226.635 11.6426L228.852 17.8437V18L225.805 18Z" fill="#FA00CE"/>
<path d="M92.0234 3.78125V3.33125L91.4867 3.33125L91.5803 3.85977L92.0234 3.78125ZM94.3477 3.78125L94.7916 3.70754L94.7291 3.33125L94.3477 3.33125V3.78125ZM96.0762 14.1914L95.6322 14.2651L95.8552 15.6078L96.4765 14.3968L96.0762 14.1914ZM101.418 3.78125V3.33125H101.143L101.018 3.57581L101.418 3.78125ZM103.938 3.78125L104.336 3.98991L104.681 3.33125L103.938 3.33125V3.78125ZM96.4961 18V18.45H96.7685L96.8948 18.2087L96.4961 18ZM94.543 18L94.0999 18.0785L94.1657 18.45H94.543V18ZM90.666 3.78125V3.33125L90.2872 3.33125L90.2226 3.70451L90.666 3.78125ZM93.0879 3.78125L93.5341 3.8392L93.6001 3.33125L93.0879 3.33125V3.78125ZM91.75 14.084L92.1931 14.1624L92.1949 14.1522L92.1963 14.1419L91.75 14.084ZM91.0566 18V18.45H91.434L91.4997 18.0785L91.0566 18ZM88.2051 18L87.7617 17.9233L87.6705 18.45H88.2051V18ZM102.766 3.78125V3.33125L102.402 3.33125L102.326 3.68644L102.766 3.78125ZM105.197 3.78125L105.641 3.85799L105.732 3.33125L105.197 3.33125V3.78125ZM102.736 18V18.45H103.115L103.18 18.0767L102.736 18ZM99.8652 18L99.4221 17.922L99.3291 18.45L99.8652 18.45V18ZM100.598 13.8398L100.158 13.745L100.156 13.7534L100.154 13.7618L100.598 13.8398ZM92.0234 4.23125L94.3477 4.23125V3.33125L92.0234 3.33125V4.23125ZM93.9037 3.85496L95.6322 14.2651L96.5201 14.1177L94.7916 3.70754L93.9037 3.85496ZM96.4765 14.3968L101.818 3.98669L101.018 3.57581L95.6758 13.986L96.4765 14.3968ZM101.418 4.23125L103.938 4.23125V3.33125L101.418 3.33125V4.23125ZM103.539 3.57259L96.0974 17.7913L96.8948 18.2087L104.336 3.98991L103.539 3.57259ZM96.4961 17.55L94.543 17.55V18.45L96.4961 18.45V17.55ZM94.9861 17.9215L92.4665 3.70273L91.5803 3.85977L94.0999 18.0785L94.9861 17.9215ZM90.666 4.23125L93.0879 4.23125V3.33125L90.666 3.33125V4.23125ZM92.6416 3.7233L91.3037 14.026L92.1963 14.1419L93.5341 3.8392L92.6416 3.7233ZM91.3069 14.0055L90.6135 17.9215L91.4997 18.0785L92.1931 14.1624L91.3069 14.0055ZM91.0566 17.55L88.2051 17.55V18.45L91.0566 18.45V17.55ZM88.6485 18.0767L91.1094 3.85799L90.2226 3.70451L87.7617 17.9233L88.6485 18.0767ZM102.766 4.23125L105.197 4.23125V3.33125L102.766 3.33125V4.23125ZM104.754 3.70451L102.293 17.9233L103.18 18.0767L105.641 3.85799L104.754 3.70451ZM102.736 17.55H99.8652V18.45H102.736V17.55ZM100.308 18.078L101.041 13.9179L100.154 13.7618L99.4221 17.922L100.308 18.078ZM101.038 13.9347L103.206 3.87606L102.326 3.68644L100.158 13.745L101.038 13.9347ZM115.375 15.7148L115.818 15.7925L115.911 15.2648H115.375V15.7148ZM114.975 18V18.45H115.353L115.418 18.0777L114.975 18ZM107.621 18L107.178 17.9242L107.088 18.45H107.621V18ZM108.012 15.7148V15.2648H107.632L107.568 15.639L108.012 15.7148ZM111.029 3.78125L111.473 3.85829L111.564 3.33125L111.029 3.33125V3.78125ZM108.559 18V18.45L108.937 18.45L109.002 18.077L108.559 18ZM105.697 18L105.254 17.9233L105.163 18.45H105.697V18ZM108.158 3.78125V3.33125L107.779 3.33125L107.715 3.70451L108.158 3.78125ZM115.482 9.57227L115.926 9.65003L116.018 9.12227H115.482V9.57227ZM115.092 11.7988V12.2488H115.47L115.535 11.8766L115.092 11.7988ZM108.695 11.7988L108.252 11.7211L108.159 12.2488H108.695V11.7988ZM109.086 9.57227V9.12227H108.708L108.643 9.49451L109.086 9.57227ZM117.426 3.78125L117.869 3.85859L117.961 3.33125L117.426 3.33125V3.78125ZM117.025 6.07617V6.52617H117.404L117.469 6.15351L117.025 6.07617ZM109.682 6.07617L109.239 5.997L109.144 6.52617L109.682 6.52617V6.07617ZM110.092 3.78125V3.33125H109.715L109.649 3.70208L110.092 3.78125ZM114.932 15.6372L114.531 17.9223L115.418 18.0777L115.818 15.7925L114.932 15.6372ZM114.975 17.55L107.621 17.55V18.45L114.975 18.45V17.55ZM108.065 18.0758L108.455 15.7907L107.568 15.639L107.178 17.9242L108.065 18.0758ZM108.012 16.1648L115.375 16.1648V15.2648L108.012 15.2648V16.1648ZM110.586 3.70421L108.115 17.923L109.002 18.077L111.473 3.85829L110.586 3.70421ZM108.559 17.55H105.697V18.45H108.559V17.55ZM106.141 18.0767L108.602 3.85799L107.715 3.70451L105.254 17.9233L106.141 18.0767ZM108.158 4.23125L111.029 4.23125V3.33125L108.158 3.33125V4.23125ZM115.039 9.49451L114.649 11.7211L115.535 11.8766L115.926 9.65003L115.039 9.49451ZM115.092 11.3488L108.695 11.3488V12.2488L115.092 12.2488V11.3488ZM109.139 11.8766L109.529 9.65003L108.643 9.49451L108.252 11.7211L109.139 11.8766ZM109.086 10.0223L115.482 10.0223V9.12227L109.086 9.12227V10.0223ZM116.982 3.70391L116.582 5.99883L117.469 6.15351L117.869 3.85859L116.982 3.70391ZM117.025 5.62617L109.682 5.62617V6.52617L117.025 6.52617V5.62617ZM110.125 6.15534L110.535 3.86042L109.649 3.70208L109.239 5.997L110.125 6.15534ZM110.092 4.23125L117.426 4.23125V3.33125L110.092 3.33125V4.23125ZM121.52 18L121.522 17.55H121.52V18ZM118.355 18L117.913 17.9205L117.818 18.45L118.355 18.45V18ZM118.766 15.7148L118.769 15.2649L118.39 15.2622L118.323 15.6353L118.766 15.7148ZM121.607 15.7344L121.604 16.1844H121.607V15.7344ZM123.844 15.1094L124.099 15.4801L124.102 15.4782L123.844 15.1094ZM125.27 13.4492L124.869 13.245L124.868 13.2464L125.27 13.4492ZM125.982 11.2129L126.427 11.2816L126.429 11.2695L125.982 11.2129ZM126.07 10.5195L126.517 10.5761L126.517 10.5725L126.07 10.5195ZM126.129 9.01562L125.679 9.0327L125.679 9.03292L126.129 9.01562ZM125.846 7.58984L125.424 7.74717L125.426 7.75264L125.846 7.58984ZM123.609 6.08594L123.624 5.63598L123.611 5.63594L123.609 6.08594ZM120.367 6.07617L119.924 5.99883L119.832 6.52456L120.366 6.52617L120.367 6.07617ZM120.768 3.78125L120.769 3.33125L120.39 3.32999L120.324 3.70391L120.768 3.78125ZM123.697 3.79102L123.707 3.34104L123.699 3.34102L123.697 3.79102ZM126.178 4.37695L125.968 4.77494L125.971 4.77644L126.178 4.37695ZM128.844 8.00977L128.404 8.10551L128.404 8.10625L128.844 8.00977ZM128.951 10.5391L128.504 10.4865L128.504 10.4887L128.951 10.5391ZM128.873 11.2324L129.319 11.2935L129.32 11.2828L128.873 11.2324ZM128.062 13.8984L127.659 13.6985L127.658 13.701L128.062 13.8984ZM126.49 16.0664L126.802 16.3912L126.802 16.3911L126.49 16.0664ZM124.273 17.502L124.442 17.9193L124.444 17.9182L124.273 17.502ZM122.447 3.78125L122.891 3.85829L122.982 3.33125L122.447 3.33125V3.78125ZM119.977 18V18.45H120.355L120.42 18.077L119.977 18ZM117.115 18L116.672 17.9233L116.581 18.45H117.115V18ZM119.576 3.78125V3.33125L119.197 3.33125L119.133 3.70451L119.576 3.78125ZM121.52 17.55H118.355V18.45H121.52V17.55ZM118.798 18.0795L119.209 15.7943L118.323 15.6353L117.913 17.9205L118.798 18.0795ZM118.763 16.1648L121.604 16.1844L121.611 15.2844L118.769 15.2649L118.763 16.1648ZM121.607 16.1844C122.565 16.1844 123.404 15.9582 124.099 15.4801L123.589 14.7387C123.072 15.0939 122.421 15.2844 121.607 15.2844V16.1844ZM124.102 15.4782C124.77 15.0108 125.294 14.3995 125.671 13.652L124.868 13.2464C124.555 13.8662 124.128 14.3616 123.586 14.7405L124.102 15.4782ZM125.67 13.6535C126.045 12.9189 126.296 12.1274 126.427 11.2816L125.538 11.1442C125.421 11.8999 125.197 12.5994 124.869 13.245L125.67 13.6535ZM126.429 11.2695L126.517 10.5761L125.624 10.4629L125.536 11.1563L126.429 11.2695ZM126.517 10.5725C126.579 10.0539 126.599 9.52912 126.579 8.99833L125.679 9.03292C125.698 9.51776 125.679 9.99558 125.623 10.4666L126.517 10.5725ZM126.579 8.99855C126.557 8.43929 126.454 7.91423 126.265 7.42705L125.426 7.75264C125.576 8.13786 125.661 8.56332 125.679 9.0327L126.579 8.99855ZM126.267 7.43253C126.076 6.91969 125.765 6.49442 125.338 6.16775L124.791 6.88304C125.08 7.10324 125.29 7.3876 125.424 7.74716L126.267 7.43253ZM125.338 6.16775C124.882 5.82017 124.296 5.65764 123.624 5.63617L123.595 6.53571C124.146 6.5533 124.53 6.68373 124.791 6.88304L125.338 6.16775ZM123.611 5.63594L120.369 5.62617L120.366 6.52617L123.608 6.53594L123.611 5.63594ZM120.81 6.15351L121.211 3.85859L120.324 3.70391L119.924 5.99883L120.81 6.15351ZM120.766 4.23125L123.696 4.24101L123.699 3.34102L120.769 3.33125L120.766 4.23125ZM123.688 4.24092C124.582 4.25929 125.338 4.44235 125.968 4.77493L126.388 3.97898C125.612 3.56937 124.713 3.3618 123.707 3.34111L123.688 4.24092ZM125.971 4.77644C126.613 5.10945 127.134 5.55808 127.541 6.12396L128.272 5.59869C127.78 4.91457 127.149 4.37362 126.385 3.97746L125.971 4.77644ZM127.541 6.12396C127.952 6.69541 128.24 7.35387 128.404 8.10551L129.283 7.91403C129.096 7.05108 128.759 6.27725 128.272 5.59869L127.541 6.12396ZM128.404 8.10625C128.568 8.854 128.603 9.64647 128.504 10.4865L129.398 10.5916C129.508 9.66082 129.471 8.76709 129.283 7.91328L128.404 8.10625ZM128.504 10.4887L128.426 11.182L129.32 11.2828L129.398 10.5894L128.504 10.4887ZM128.427 11.1713C128.303 12.0755 128.047 12.917 127.659 13.6985L128.466 14.0984C128.898 13.2262 129.182 12.2904 129.319 11.2935L128.427 11.1713ZM127.658 13.701C127.277 14.4817 126.784 15.161 126.179 15.7417L126.802 16.3911C127.486 15.7349 128.041 14.9688 128.467 14.0959L127.658 13.701ZM126.179 15.7416C125.583 16.3135 124.892 16.7615 124.102 17.0857L124.444 17.9182C125.335 17.5523 126.122 17.0432 126.802 16.3912L126.179 15.7416ZM124.105 17.0846C123.325 17.3991 122.466 17.5562 121.522 17.55L121.517 18.45C122.565 18.4568 123.542 18.2819 124.442 17.9193L124.105 17.0846ZM122.004 3.70421L119.533 17.923L120.42 18.077L122.891 3.85829L122.004 3.70421ZM119.977 17.55L117.115 17.55V18.45L119.977 18.45V17.55ZM117.559 18.0767L120.02 3.85799L119.133 3.70451L116.672 17.9233L117.559 18.0767ZM119.576 4.23125L122.447 4.23125V3.33125L119.576 3.33125V4.23125ZM135.74 3.78125L136.184 3.85799L136.275 3.33125L135.74 3.33125V3.78125ZM133.279 18V18.45H133.658L133.723 18.0767L133.279 18ZM130.418 18L129.975 17.923L129.883 18.45H130.418V18ZM132.889 3.78125V3.33125L132.51 3.33125L132.445 3.70421L132.889 3.78125ZM135.297 3.70451L132.836 17.9233L133.723 18.0767L136.184 3.85799L135.297 3.70451ZM133.279 17.55L130.418 17.55V18.45L133.279 18.45V17.55ZM130.861 18.077L133.332 3.85829L132.445 3.70421L129.975 17.923L130.861 18.077ZM132.889 4.23125L135.74 4.23125V3.33125L132.889 3.33125V4.23125ZM144.238 6.35937L144.642 6.55791L144.66 6.52215L144.671 6.48386L144.238 6.35937ZM138.516 18V18.45H138.796L138.919 18.1985L138.516 18ZM135.371 18L134.974 17.7879L134.62 18.45H135.371V18ZM142.969 3.78125V3.33125H142.699L142.572 3.56917L142.969 3.78125ZM144.98 3.78125L145.413 3.90574L145.578 3.33125L144.98 3.33125V3.78125ZM145.371 18L144.926 18.0648L144.982 18.45H145.371V18ZM143.633 6.05664L143.183 6.03542L143.181 6.07864L143.188 6.12145L143.633 6.05664ZM143.74 3.78125V3.33125L143.311 3.33125L143.291 3.76003L143.74 3.78125ZM145.625 3.78125L146.067 3.69773L145.998 3.33125L145.625 3.33125V3.78125ZM148.311 18V18.45H148.853L148.753 17.9165L148.311 18ZM146.094 12.707L146.537 12.7844L146.629 12.257H146.094V12.707ZM145.693 15.002V15.452H146.072L146.137 15.0793L145.693 15.002ZM138.379 15.002L137.936 14.9246L137.844 15.452H138.379V15.002ZM138.779 12.707V12.257H138.401L138.336 12.6297L138.779 12.707ZM143.834 6.16084L138.112 17.8015L138.919 18.1985L144.642 6.55791L143.834 6.16084ZM138.516 17.55L135.371 17.55V18.45L138.516 18.45V17.55ZM135.768 18.2121L143.366 3.99333L142.572 3.56917L134.974 17.7879L135.768 18.2121ZM142.969 4.23125L144.98 4.23125V3.33125L142.969 3.33125V4.23125ZM144.548 3.65676L143.806 6.23489L144.671 6.48386L145.413 3.90574L144.548 3.65676ZM145.816 17.9352L144.078 5.99183L143.188 6.12145L144.926 18.0648L145.816 17.9352ZM144.082 6.07786L144.19 3.80247L143.291 3.76003L143.183 6.03542L144.082 6.07786ZM143.74 4.23125L145.625 4.23125V3.33125L143.74 3.33125V4.23125ZM145.183 3.86477L147.868 18.0835L148.753 17.9165L146.067 3.69773L145.183 3.86477ZM148.311 17.55L145.371 17.55V18.45L148.311 18.45V17.55ZM145.65 12.6297L145.25 14.9246L146.137 15.0793L146.537 12.7844L145.65 12.6297ZM145.693 14.552L138.379 14.552V15.452L145.693 15.452V14.552ZM138.822 15.0793L139.223 12.7844L138.336 12.6297L137.936 14.9246L138.822 15.0793ZM138.779 13.157L146.094 13.157V12.257L138.779 12.257V13.157ZM164.32 13.293L164.314 12.843L163.959 12.848L163.881 13.1948L164.32 13.293ZM167.113 13.2539L167.56 13.3066L167.62 12.7968L167.107 12.804L167.113 13.2539ZM166.049 15.9492L165.694 15.6719L165.694 15.6723L166.049 15.9492ZM163.861 17.6484L164.042 18.0608L164.044 18.0597L163.861 17.6484ZM161 18.1953L160.991 18.6452L160.991 18.6452L161 18.1953ZM158.598 17.5898L158.366 17.9757L158.369 17.9774L158.598 17.5898ZM157.064 16.0273L156.674 16.2502L157.064 16.0273ZM156.312 11.3887L155.867 11.3269L155.866 11.3333L156.312 11.3887ZM156.449 10.4023L156.004 10.3369L156.003 10.3406L156.449 10.4023ZM157.162 7.83398L156.748 7.6579L156.747 7.66068L157.162 7.83398ZM160.551 4.10352L160.356 3.69767L160.551 4.10352ZM163.188 3.57617L163.179 4.02608L163.179 4.02609L163.188 3.57617ZM165.795 4.24023L165.564 4.62675L165.569 4.62919L165.795 4.24023ZM167.445 5.98828L167.045 6.19371L167.047 6.19787L167.445 5.98828ZM168.1 8.5957L168.098 9.0457L168.571 9.04733L168.549 8.57514L168.1 8.5957ZM165.258 8.58594L164.808 8.58038L164.802 9.03437L165.256 9.03593L165.258 8.58594ZM165.062 7.19922L164.634 7.3374L164.637 7.3457L165.062 7.19922ZM164.379 6.26172L164.121 6.63041L164.126 6.63384L164.379 6.26172ZM163.031 5.89062L163.047 5.44088L163.045 5.44084L163.031 5.89062ZM160.355 7.33594L159.976 7.09397L159.974 7.09794L160.355 7.33594ZM159.691 8.81055L159.261 8.67931L159.26 8.68414L159.691 8.81055ZM159.34 10.3828L158.895 10.3152L158.894 10.3228L159.34 10.3828ZM159.203 11.3984L158.757 11.3384L158.756 11.3435L159.203 11.3984ZM159.096 12.8047L159.545 12.822L159.545 12.8218L159.096 12.8047ZM159.828 15.4121L159.507 15.7269L159.51 15.7303L159.828 15.4121ZM161.166 15.8906L161.181 15.4409L161.181 15.4409L161.166 15.8906ZM162.68 15.6172L162.488 15.2099L162.486 15.211L162.68 15.6172ZM163.725 14.7187L163.354 14.4635L163.351 14.4677L163.725 14.7187ZM164.327 13.7429L167.12 13.7039L167.107 12.804L164.314 12.843L164.327 13.7429ZM166.666 13.2012C166.551 14.1767 166.224 14.9951 165.694 15.6719L166.403 16.2266C167.045 15.4059 167.428 14.4275 167.56 13.3066L166.666 13.2012ZM165.694 15.6723C165.161 16.355 164.492 16.8759 163.679 17.2372L164.044 18.0597C164.989 17.6397 165.778 17.0278 166.404 16.2261L165.694 15.6723ZM163.681 17.2361C162.866 17.5924 161.977 17.7638 161.009 17.7454L160.991 18.6452C162.08 18.6659 163.099 18.4727 164.042 18.0608L163.681 17.2361ZM161.009 17.7454C160.116 17.7271 159.396 17.5382 158.826 17.2023L158.369 17.9774C159.102 18.4097 159.983 18.6245 160.991 18.6452L161.009 17.7454ZM158.829 17.204C158.243 16.8526 157.788 16.3875 157.455 15.8045L156.674 16.2502C157.083 16.9693 157.65 17.5459 158.366 17.9757L158.829 17.204ZM157.455 15.8045C157.114 15.206 156.887 14.5342 156.777 13.7844L155.887 13.9148C156.011 14.7666 156.272 15.5467 156.674 16.2502L157.455 15.8045ZM156.777 13.7844C156.666 13.0254 156.66 12.2457 156.759 11.4441L155.866 11.3333C155.757 12.2114 155.763 13.0723 155.887 13.9148L156.777 13.7844ZM156.758 11.4505L156.895 10.4641L156.003 10.3406L155.867 11.3269L156.758 11.4505ZM156.894 10.4678C157.019 9.61949 157.247 8.79959 157.577 8.00729L156.747 7.66068C156.387 8.52202 156.14 9.41436 156.004 10.3369L156.894 10.4678ZM157.576 8.01007C157.91 7.22527 158.344 6.53085 158.877 5.924L158.201 5.3299C157.602 6.01212 157.117 6.78905 156.748 7.6579L157.576 8.01007ZM158.877 5.924C159.403 5.3251 160.025 4.85427 160.745 4.50936L160.356 3.69767C159.527 4.09494 158.808 4.63974 158.201 5.3299L158.877 5.924ZM160.745 4.50936C161.448 4.17276 162.256 4.00775 163.179 4.02608L163.196 3.12626C162.153 3.10554 161.203 3.29208 160.356 3.69767L160.745 4.50936ZM163.179 4.02609C164.148 4.0445 164.937 4.25234 165.564 4.62673L166.025 3.85374C165.234 3.38178 164.284 3.14691 163.196 3.12625L163.179 4.02609ZM165.569 4.62919C166.209 5.00187 166.699 5.5203 167.045 6.19369L167.846 5.78287C167.423 4.95887 166.813 4.31193 166.021 3.85128L165.569 4.62919ZM167.047 6.19787C167.402 6.87157 167.607 7.67386 167.65 8.61627L168.549 8.57514C168.501 7.52536 168.27 6.58937 167.844 5.7787L167.047 6.19787ZM168.101 8.14571L165.259 8.13594L165.256 9.03593L168.098 9.0457L168.101 8.14571ZM165.708 8.59149C165.715 8.0251 165.645 7.50946 165.488 7.05274L164.637 7.3457C164.753 7.68325 164.814 8.09208 164.808 8.58038L165.708 8.59149ZM165.491 7.06107C165.332 6.56998 165.047 6.17175 164.632 5.8896L164.126 6.63384C164.362 6.79439 164.532 7.02117 164.634 7.33737L165.491 7.06107ZM164.637 5.89306C164.215 5.59773 163.67 5.46214 163.047 5.44089L163.016 6.34036C163.538 6.35818 163.892 6.46998 164.121 6.63037L164.637 5.89306ZM163.045 5.44084C162.352 5.41919 161.731 5.55591 161.205 5.87788L161.674 6.64555C162.021 6.43368 162.46 6.323 163.017 6.34041L163.045 5.44084ZM161.205 5.87788C160.708 6.18201 160.298 6.58959 159.976 7.09399L160.735 7.57789C160.986 7.18385 161.299 6.87528 161.674 6.64555L161.205 5.87788ZM159.974 7.09794C159.672 7.58224 159.435 8.10995 159.261 8.67932L160.122 8.94178C160.274 8.44344 160.479 7.98807 160.737 7.57394L159.974 7.09794ZM159.26 8.68414C159.098 9.23597 158.976 9.77972 158.895 10.3152L159.785 10.4504C159.86 9.95726 159.972 9.45283 160.123 8.93695L159.26 8.68414ZM158.894 10.3228L158.757 11.3384L159.649 11.4585L159.786 10.4428L158.894 10.3228ZM158.756 11.3435C158.703 11.7815 158.666 12.2631 158.646 12.7876L159.545 12.8218C159.565 12.3176 159.599 11.8617 159.65 11.4534L158.756 11.3435ZM158.646 12.7874C158.625 13.3314 158.67 13.8557 158.784 14.3587L159.662 14.1608C159.567 13.7394 159.527 13.2936 159.545 12.822L158.646 12.7874ZM158.784 14.3587C158.904 14.8934 159.143 15.355 159.507 15.7269L160.15 15.0974C159.915 14.8573 159.749 14.5506 159.662 14.1608L158.784 14.3587ZM159.51 15.7303C159.918 16.138 160.49 16.3186 161.151 16.3404L161.181 15.4409C160.657 15.4236 160.338 15.2852 160.146 15.0939L159.51 15.7303ZM161.151 16.3404C161.791 16.3617 162.371 16.263 162.873 16.0234L162.486 15.211C162.142 15.375 161.713 15.4586 161.181 15.4409L161.151 16.3404ZM162.871 16.0245C163.375 15.7877 163.786 15.434 164.098 14.9698L163.351 14.4677C163.129 14.7978 162.844 15.043 162.488 15.2099L162.871 16.0245ZM164.095 14.9739C164.407 14.5218 164.625 13.991 164.759 13.3911L163.881 13.1948C163.768 13.7017 163.59 14.1215 163.354 14.4636L164.095 14.9739ZM178.434 15.7148L178.877 15.7925L178.969 15.2648H178.434V15.7148ZM178.033 18V18.45H178.411L178.476 18.0777L178.033 18ZM170.68 18L170.236 17.9242L170.146 18.45H170.68V18ZM171.07 15.7148V15.2648H170.691L170.627 15.639L171.07 15.7148ZM174.088 3.78125L174.531 3.85829L174.623 3.33125L174.088 3.33125V3.78125ZM171.617 18V18.45H171.996L172.061 18.077L171.617 18ZM168.756 18L168.312 17.9233L168.221 18.45H168.756V18ZM171.217 3.78125V3.33125H170.838L170.773 3.70451L171.217 3.78125ZM178.541 9.57227L178.984 9.65003L179.077 9.12227H178.541V9.57227ZM178.15 11.7988V12.2488H178.528L178.594 11.8766L178.15 11.7988ZM171.754 11.7988L171.311 11.7211L171.218 12.2488H171.754V11.7988ZM172.145 9.57227V9.12227H171.767L171.701 9.49451L172.145 9.57227ZM180.484 3.78125L180.928 3.85859L181.02 3.33125L180.484 3.33125V3.78125ZM180.084 6.07617V6.52617H180.462L180.527 6.15351L180.084 6.07617ZM172.74 6.07617L172.297 5.997L172.203 6.52617H172.74V6.07617ZM173.15 3.78125V3.33125L172.774 3.33125L172.707 3.70208L173.15 3.78125ZM177.99 15.6372L177.59 17.9223L178.476 18.0777L178.877 15.7925L177.99 15.6372ZM178.033 17.55L170.68 17.55V18.45L178.033 18.45V17.55ZM171.123 18.0758L171.514 15.7907L170.627 15.639L170.236 17.9242L171.123 18.0758ZM171.07 16.1648L178.434 16.1648V15.2648L171.07 15.2648V16.1648ZM173.645 3.70421L171.174 17.923L172.061 18.077L174.531 3.85829L173.645 3.70421ZM171.617 17.55L168.756 17.55V18.45L171.617 18.45V17.55ZM169.199 18.0767L171.66 3.85799L170.773 3.70451L168.312 17.9233L169.199 18.0767ZM171.217 4.23125L174.088 4.23125V3.33125L171.217 3.33125V4.23125ZM178.098 9.49451L177.707 11.7211L178.594 11.8766L178.984 9.65003L178.098 9.49451ZM178.15 11.3488L171.754 11.3488V12.2488L178.15 12.2488V11.3488ZM172.197 11.8766L172.588 9.65003L171.701 9.49451L171.311 11.7211L172.197 11.8766ZM172.145 10.0223L178.541 10.0223V9.12227L172.145 9.12227V10.0223ZM180.041 3.70391L179.641 5.99883L180.527 6.15351L180.928 3.85859L180.041 3.70391ZM180.084 5.62617L172.74 5.62617V6.52617L180.084 6.52617V5.62617ZM173.183 6.15534L173.593 3.86042L172.707 3.70208L172.297 5.997L173.183 6.15534ZM173.15 4.23125L180.484 4.23125V3.33125L173.15 3.33125V4.23125ZM193.885 3.78125L194.328 3.85829L194.42 3.33125H193.885V3.78125ZM191.414 18V18.45H191.793L191.857 18.077L191.414 18ZM188.641 18L188.224 18.1701L188.338 18.45H188.641V18ZM184.705 8.36133L185.122 8.19122L184.529 6.74022L184.262 8.28451L184.705 8.36133ZM183.035 18V18.45H183.414L183.479 18.0768L183.035 18ZM180.174 18L179.73 17.9233L179.639 18.45H180.174V18ZM182.635 3.78125V3.33125L182.256 3.33125L182.191 3.70451L182.635 3.78125ZM185.418 3.78125L185.834 3.61093L185.72 3.33125H185.418V3.78125ZM189.363 13.4297L188.947 13.6L189.54 15.0498L189.807 13.5064L189.363 13.4297ZM191.033 3.78125V3.33125L190.654 3.33125L190.59 3.70451L191.033 3.78125ZM193.441 3.70421L190.971 17.923L191.857 18.077L194.328 3.85829L193.441 3.70421ZM191.414 17.55H188.641V18.45H191.414V17.55ZM189.057 17.8299L185.122 8.19122L184.288 8.53143L188.224 18.1701L189.057 17.8299ZM184.262 8.28451L182.592 17.9232L183.479 18.0768L185.148 8.43815L184.262 8.28451ZM183.035 17.55L180.174 17.55V18.45L183.035 18.45V17.55ZM180.617 18.0767L183.078 3.85799L182.191 3.70451L179.73 17.9233L180.617 18.0767ZM182.635 4.23125L185.418 4.23125V3.33125L182.635 3.33125V4.23125ZM185.001 3.95157L188.947 13.6L189.78 13.2594L185.834 3.61093L185.001 3.95157ZM189.807 13.5064L191.477 3.85799L190.59 3.70451L188.92 13.3529L189.807 13.5064ZM191.033 4.23125L193.885 4.23125V3.33125L191.033 3.33125V4.23125ZM202.725 3.78125L203.168 3.85799L203.259 3.33125L202.725 3.33125V3.78125ZM200.264 18V18.45H200.642L200.707 18.0767L200.264 18ZM197.402 18L196.959 17.923L196.867 18.45H197.402V18ZM199.873 3.78125V3.33125L199.494 3.33125L199.43 3.70421L199.873 3.78125ZM206.963 3.78125L207.406 3.85859L207.498 3.33125L206.963 3.33125V3.78125ZM206.562 6.07617V6.52617H206.941L207.006 6.15351L206.562 6.07617ZM195.303 6.07617L194.859 5.99883L194.767 6.52617H195.303V6.07617ZM195.703 3.78125V3.33125L195.325 3.33125L195.26 3.70391L195.703 3.78125ZM202.281 3.70451L199.82 17.9233L200.707 18.0767L203.168 3.85799L202.281 3.70451ZM200.264 17.55H197.402V18.45H200.264V17.55ZM197.846 18.077L200.316 3.85829L199.43 3.70421L196.959 17.923L197.846 18.077ZM199.873 4.23125L202.725 4.23125V3.33125L199.873 3.33125V4.23125ZM206.52 3.70391L206.119 5.99883L207.006 6.15351L207.406 3.85859L206.52 3.70391ZM206.562 5.62617L195.303 5.62617V6.52617L206.562 6.52617V5.62617ZM195.746 6.15351L196.146 3.85859L195.26 3.70391L194.859 5.99883L195.746 6.15351ZM195.703 4.23125L206.963 4.23125V3.33125L195.703 3.33125V4.23125ZM216.281 15.7148L216.725 15.7925L216.817 15.2648H216.281V15.7148ZM215.881 18V18.45H216.259L216.324 18.0777L215.881 18ZM208.527 18L208.084 17.9242L207.994 18.45H208.527V18ZM208.918 15.7148V15.2648H208.538L208.474 15.639L208.918 15.7148ZM211.936 3.78125L212.379 3.85829L212.47 3.33125L211.936 3.33125V3.78125ZM209.465 18V18.45H209.843L209.908 18.077L209.465 18ZM206.604 18L206.16 17.9233L206.069 18.45H206.604V18ZM209.064 3.78125V3.33125L208.686 3.33125L208.621 3.70451L209.064 3.78125ZM216.389 9.57227L216.832 9.65003L216.924 9.12227H216.389V9.57227ZM215.998 11.7988V12.2488L216.376 12.2488L216.441 11.8766L215.998 11.7988ZM209.602 11.7988L209.158 11.7211L209.066 12.2488L209.602 12.2488V11.7988ZM209.992 9.57227V9.12227H209.614L209.549 9.49451L209.992 9.57227ZM218.332 3.78125L218.775 3.85859L218.867 3.33125L218.332 3.33125V3.78125ZM217.932 6.07617V6.52617H218.31L218.375 6.15351L217.932 6.07617ZM210.588 6.07617L210.145 5.997L210.05 6.52617H210.588V6.07617ZM210.998 3.78125V3.33125H210.621L210.555 3.70208L210.998 3.78125ZM215.838 15.6372L215.438 17.9223L216.324 18.0777L216.725 15.7925L215.838 15.6372ZM215.881 17.55L208.527 17.55V18.45L215.881 18.45V17.55ZM208.971 18.0758L209.362 15.7907L208.474 15.639L208.084 17.9242L208.971 18.0758ZM208.918 16.1648L216.281 16.1648V15.2648L208.918 15.2648V16.1648ZM211.492 3.70421L209.021 17.923L209.908 18.077L212.379 3.85829L211.492 3.70421ZM209.465 17.55H206.604V18.45H209.465V17.55ZM207.047 18.0767L209.508 3.85799L208.621 3.70451L206.16 17.9233L207.047 18.0767ZM209.064 4.23125L211.936 4.23125V3.33125L209.064 3.33125V4.23125ZM215.945 9.49451L215.555 11.7211L216.441 11.8766L216.832 9.65003L215.945 9.49451ZM215.998 11.3488L209.602 11.3488V12.2488L215.998 12.2488V11.3488ZM210.045 11.8766L210.435 9.65003L209.549 9.49451L209.158 11.7211L210.045 11.8766ZM209.992 10.0223L216.389 10.0223V9.12227L209.992 9.12227V10.0223ZM217.889 3.70391L217.488 5.99883L218.375 6.15351L218.775 3.85859L217.889 3.70391ZM217.932 5.62617L210.588 5.62617V6.52617L217.932 6.52617V5.62617ZM211.031 6.15534L211.441 3.86042L210.555 3.70208L210.145 5.997L211.031 6.15534ZM210.998 4.23125L218.332 4.23125V3.33125L210.998 3.33125V4.23125ZM220.482 3.78125L220.483 3.33125L220.104 3.33051L220.039 3.70451L220.482 3.78125ZM225.492 3.79102L225.499 3.34103L225.493 3.34102L225.492 3.79102ZM227.846 4.26953L227.666 4.68215L227.668 4.68275L227.846 4.26953ZM229.496 5.64648L229.117 5.88861L229.119 5.89145L229.496 5.64648ZM229.994 7.98047L230.443 8.01816L230.443 8.01143L229.994 7.98047ZM229.428 9.94336L229.039 9.71602L229.037 9.71958L229.428 9.94336ZM228.188 11.3008L227.926 10.9343L227.924 10.9359L228.188 11.3008ZM226.41 12.2578L226.244 11.8397L226.229 11.8455L226.215 11.8522L226.41 12.2578ZM225.414 12.7363V13.1863H225.517L225.609 13.142L225.414 12.7363ZM220.785 12.7363L220.342 12.6605L220.252 13.1863L220.785 13.1863V12.7363ZM221.176 10.4512L221.179 10.0012L220.797 9.99884L220.732 10.3753L221.176 10.4512ZM224.359 10.4707L224.357 10.9208L224.366 10.9207L224.359 10.4707ZM226.625 9.43555L226.268 9.16118L226.268 9.16219L226.625 9.43555ZM227.113 8.20508L226.668 8.14336L226.667 8.14482L227.113 8.20508ZM227.025 7.10156L226.601 7.25182L226.604 7.25957L227.025 7.10156ZM225.404 6.08594L225.418 5.63599L225.406 5.63594L225.404 6.08594ZM222.953 6.07617L222.955 5.62618L222.575 5.62466L222.51 5.99919L222.953 6.07617ZM220.883 18V18.45H221.261L221.326 18.077L220.883 18ZM218.021 18L217.578 17.9233L217.487 18.45H218.021V18ZM225.805 18L225.377 18.1385L225.477 18.45H225.805V18ZM223.754 11.6621L223.751 11.2121L223.137 11.2163L223.326 11.8006L223.754 11.6621ZM226.635 11.6426L227.059 11.4911L226.951 11.1904L226.632 11.1926L226.635 11.6426ZM228.852 17.8437H229.302V17.7657L229.275 17.6923L228.852 17.8437ZM228.852 18V18.45H229.302V18H228.852ZM220.482 4.23125L225.491 4.24101L225.493 3.34102L220.483 3.33125L220.482 4.23125ZM225.485 4.24096C226.299 4.25321 227.024 4.40279 227.666 4.68215L228.025 3.85691C227.261 3.52429 226.417 3.35487 225.499 3.34107L225.485 4.24096ZM227.668 4.68275C228.3 4.95552 228.778 5.35748 229.117 5.8886L229.875 5.40437C229.433 4.71153 228.811 4.19552 228.024 3.85631L227.668 4.68275ZM229.119 5.89145C229.449 6.40021 229.606 7.0738 229.545 7.94951L230.443 8.01143C230.513 6.99911 230.338 6.11671 229.874 5.40152L229.119 5.89145ZM229.546 7.94279C229.485 8.66733 229.31 9.25303 229.039 9.71603L229.816 10.1707C230.17 9.56598 230.373 8.84309 230.443 8.01815L229.546 7.94279ZM229.037 9.71958C228.765 10.1949 228.396 10.5994 227.926 10.9343L228.449 11.6673C229.02 11.26 229.479 10.7596 229.818 10.1671L229.037 9.71958ZM227.924 10.9359C227.444 11.2826 226.885 11.5846 226.244 11.8397L226.577 12.6759C227.277 12.3971 227.903 12.0612 228.451 11.6657L227.924 10.9359ZM226.215 11.8522L225.219 12.3307L225.609 13.142L226.605 12.6634L226.215 11.8522ZM225.414 12.2863L220.785 12.2863V13.1863L225.414 13.1863V12.2863ZM221.229 12.8122L221.619 10.527L220.732 10.3753L220.342 12.6605L221.229 12.8122ZM221.173 10.9012L224.357 10.9207L224.362 10.0207L221.179 10.0012L221.173 10.9012ZM224.366 10.9207C224.896 10.9134 225.39 10.8113 225.843 10.6076L225.474 9.7869C225.145 9.93477 224.774 10.015 224.353 10.0207L224.366 10.9207ZM225.843 10.6076C226.3 10.402 226.682 10.1017 226.982 9.7089L226.268 9.16219C226.06 9.43342 225.798 9.64096 225.474 9.7869L225.843 10.6076ZM226.982 9.70992C227.296 9.30082 227.485 8.8141 227.559 8.26534L226.667 8.14482C226.611 8.5596 226.474 8.89319 226.268 9.16118L226.982 9.70992ZM227.559 8.2668C227.625 7.78973 227.597 7.34305 227.447 6.94356L226.604 7.25957C226.689 7.48507 226.719 7.77407 226.668 8.14336L227.559 8.2668ZM227.45 6.95133C227.306 6.54681 227.052 6.22149 226.693 5.99061L226.206 6.74767C226.394 6.86836 226.523 7.03132 226.601 7.25179L227.45 6.95133ZM226.693 5.99061C226.333 5.75927 225.899 5.65094 225.418 5.63615L225.39 6.53572C225.756 6.54698 226.019 6.62745 226.206 6.74767L226.693 5.99061ZM225.406 5.63594L222.955 5.62618L222.951 6.52617L225.403 6.53593L225.406 5.63594ZM222.51 5.99919L220.439 17.923L221.326 18.077L223.396 6.15315L222.51 5.99919ZM220.883 17.55L218.021 17.55V18.45L220.883 18.45V17.55ZM218.465 18.0767L220.926 3.85799L220.039 3.70451L217.578 17.9233L218.465 18.0767ZM226.233 17.8615L224.182 11.5236L223.326 11.8006L225.377 18.1385L226.233 17.8615ZM223.757 12.1121L226.638 12.0926L226.632 11.1926L223.751 11.2121L223.757 12.1121ZM226.211 11.7941L228.428 17.9952L229.275 17.6923L227.059 11.4911L226.211 11.7941ZM228.402 17.8437V18L229.302 18V17.8437L228.402 17.8437ZM228.852 17.55L225.805 17.55V18.45L228.852 18.45V17.55Z" fill="#FA00CE"/>
</svg>
