<svg width="329" height="130" viewBox="0 0 329 130" fill="none" xmlns="http://www.w3.org/2000/svg">
<g filter="url(#filter0_d_491_62)">
<path d="M72.6748 65.7825H61.5819L57.1718 54.9308H36.9839L32.8162 65.7825H22L41.6707 18.0049H52.4526L72.6748 65.7825ZM53.9011 46.879L46.9415 29.149L40.1212 46.879H53.9011Z" fill="white"/>
<path d="M73.71 65.7795V57.0779L100.235 26.0843H76.708V18.002H113.672V25.4976L86.009 57.7297H114.74V65.7795H73.71Z" fill="white"/>
<path d="M121.214 65.7795V18.002H131.412V36.8061H151.392V18.002H161.59V65.7795H151.392V44.8884H131.412V65.7795H121.214Z" fill="white"/>
<path d="M185.396 65.7795V45.6701L166.896 18H178.85L190.735 36.9016L202.379 18H214.127L195.559 45.735V65.7776H185.396V65.7795Z" fill="white"/>
<path d="M219.188 65.7795V18.002H235.552C241.752 18.002 245.795 18.2409 247.677 18.7186C250.57 19.4353 252.995 20.9949 254.946 23.3953C256.898 25.7957 257.873 28.8976 257.873 32.7008C257.873 35.6345 257.31 38.0999 256.185 40.099C255.059 42.0981 253.629 43.6672 251.896 44.8082C250.162 45.9491 248.399 46.7041 246.607 47.0729C244.172 47.5297 240.647 47.7571 236.031 47.7571H229.382V65.7795H219.188ZM229.386 26.0843V39.6422H234.968C238.987 39.6422 241.673 39.3919 243.029 38.8931C244.385 38.3942 245.445 37.6107 246.215 36.5461C246.984 35.4816 247.368 34.2432 247.368 32.8308C247.368 31.0935 246.829 29.6582 245.75 28.5287C244.671 27.3992 243.304 26.6921 241.651 26.4111C240.433 26.1933 237.989 26.0843 234.314 26.0843H229.386Z" fill="white"/>
<path d="M306.554 65.7795H295.461L291.051 54.9279H270.863L266.696 65.7795H255.879L275.55 18.002H286.334L306.554 65.7795ZM287.778 46.8761L280.819 29.146L273.999 46.8761H287.778Z" fill="white"/>
<path d="M41.8511 102.729V81.3184H48.6895L52.7965 95.9236L56.8572 81.3184H63.7117V102.729H59.4673V85.8746L54.9743 102.729H50.5743L46.0975 85.8746V102.729H41.8511Z" fill="white"/>
<path d="M68.251 102.729V81.3184H85.0328V84.94H72.8207V89.6874H84.1823V93.2957H72.8207V99.1229H85.4652V102.731H68.251V102.729Z" fill="white"/>
<path d="M89.3238 81.3184H97.6753C99.5582 81.3184 100.995 81.4541 101.982 81.7274C103.31 82.0981 104.447 82.7556 105.395 83.6997C106.342 84.6438 107.061 85.8001 107.556 87.1685C108.051 88.5369 108.298 90.2245 108.298 92.2293C108.298 93.9914 108.065 95.5108 107.603 96.7855C107.037 98.3431 106.229 99.6045 105.178 100.568C104.386 101.298 103.316 101.867 101.966 102.276C100.958 102.578 99.6087 102.729 97.9218 102.729H89.3218V81.3184H89.3238ZM93.8935 84.94V99.121H97.3056C98.5824 99.121 99.5036 99.0522 100.069 98.9165C100.811 98.7407 101.425 98.4444 101.914 98.0259C102.403 97.6073 102.801 96.9193 103.11 95.9599C103.419 95.0005 103.572 93.6932 103.572 92.0382C103.572 90.3831 103.419 89.1122 103.11 88.2254C102.801 87.3386 102.368 86.6486 101.813 86.1517C101.257 85.6548 100.552 85.3185 99.6976 85.1445C99.0592 85.0088 97.8087 84.94 95.946 84.94H93.8935Z" fill="white"/>
<path d="M112.034 102.729V81.3184H116.604V102.729H112.034Z" fill="white"/>
<path d="M141.366 102.729H136.395L134.419 97.8654H125.372L123.504 102.729H118.655L127.471 81.3184H132.304L141.366 102.729ZM132.952 94.257L129.833 86.3123L126.776 94.257H132.952Z" fill="white"/>
<path d="M165.883 94.8569L170.313 96.1851C169.634 98.5225 168.505 100.258 166.925 101.391C165.345 102.526 163.341 103.092 160.911 103.092C157.905 103.092 155.436 102.121 153.501 100.178C151.565 98.2358 150.598 95.5793 150.598 92.2099C150.598 88.6455 151.569 85.8781 153.515 83.9077C155.46 81.9373 158.018 80.9492 161.188 80.9492C163.955 80.9492 166.206 81.7233 167.935 83.2713C168.963 84.1868 169.737 85.5016 170.25 87.2141L165.727 88.2365C165.458 87.1261 164.901 86.2508 164.052 85.6068C163.204 84.9627 162.171 84.6435 160.957 84.6435C159.28 84.6435 157.919 85.2131 156.874 86.3521C155.83 87.4912 155.307 89.3374 155.307 91.8869C155.307 94.5931 155.822 96.5215 156.85 97.6701C157.878 98.8187 159.218 99.394 160.864 99.394C162.078 99.394 163.123 99.029 163.998 98.2989C164.874 97.5726 165.503 96.424 165.883 94.8569Z" fill="white"/>
<path d="M174.234 102.729V81.3184H191.016V84.94H178.804V89.6874H190.166V93.2957H178.804V99.1229H191.449V102.731H174.234V102.729Z" fill="white"/>
<path d="M195.37 102.729V81.3184H199.816L209.079 95.6159V81.3184H213.325V102.729H208.739L199.616 88.7662V102.729H195.37Z" fill="white"/>
<path d="M223.252 102.729V84.94H216.537V81.3184H234.522V84.94H227.821V102.729H223.252Z" fill="white"/>
<path d="M237.469 102.729V81.3184H254.251V84.94H242.038V89.6874H253.4V93.2957H242.038V99.1229H254.683V102.731H237.469V102.729Z" fill="white"/>
<path d="M258.572 102.729V81.3184H268.19C270.608 81.3184 272.366 81.5114 273.463 81.8955C274.56 82.2797 275.436 82.9639 276.095 83.9481C276.754 84.9324 277.083 86.0562 277.083 87.3214C277.083 88.9287 276.584 90.255 275.586 91.3004C274.588 92.3478 273.095 93.0071 271.109 93.2785C272.097 93.8232 272.913 94.4233 273.556 95.075C274.198 95.7267 275.067 96.8868 276.158 98.5515L278.921 102.729H273.457L270.154 98.0698C268.98 96.4052 268.178 95.356 267.746 94.9221C267.313 94.4883 266.855 94.1921 266.372 94.0315C265.887 93.871 265.121 93.7907 264.071 93.7907H263.146V102.729H258.572ZM263.141 90.3735H266.523C268.715 90.3735 270.085 90.2856 270.63 90.1098C271.176 89.934 271.602 89.632 271.911 89.2039C272.22 88.7758 272.374 88.2406 272.374 87.5966C272.374 86.8761 272.17 86.2951 271.764 85.8517C271.358 85.4083 270.784 85.1293 270.043 85.0127C269.673 84.9649 268.56 84.94 266.707 84.94H263.141V90.3735Z" fill="white"/>
</g>
<defs>
<filter id="filter0_d_491_62" x="0" y="0" width="328.554" height="129.092" filterUnits="userSpaceOnUse" color-interpolation-filters="sRGB">
<feFlood flood-opacity="0" result="BackgroundImageFix"/>
<feColorMatrix in="SourceAlpha" type="matrix" values="0 0 0 0 0 0 0 0 0 0 0 0 0 0 0 0 0 0 127 0" result="hardAlpha"/>
<feOffset dy="4"/>
<feGaussianBlur stdDeviation="11"/>
<feComposite in2="hardAlpha" operator="out"/>
<feColorMatrix type="matrix" values="0 0 0 0 0 0 0 0 0 0 0 0 0 0 0 0 0 0 0.65 0"/>
<feBlend mode="normal" in2="BackgroundImageFix" result="effect1_dropShadow_491_62"/>
<feBlend mode="normal" in="SourceGraphic" in2="effect1_dropShadow_491_62" result="shape"/>
</filter>
</defs>
</svg>
