<svg width="43" height="39" viewBox="0 0 43 39" fill="none" xmlns="http://www.w3.org/2000/svg">
<g clip-path="url(#clip0_483_728)">
<path d="M21.5429 3.22395C31.2156 3.22395 39.0851 10.4553 39.0851 19.3437C39.0851 28.2322 31.2156 35.4635 21.5429 35.4635C11.8701 35.4635 4.00063 28.2322 4.00063 19.3437C4.00063 10.4553 11.8701 3.22395 21.5429 3.22395ZM21.5429 0C9.91762 0 0.492188 8.66115 0.492188 19.3437C0.492188 30.0263 9.91762 38.6874 21.5429 38.6874C33.1681 38.6874 42.5935 30.0263 42.5935 19.3437C42.5935 8.66115 33.1681 0 21.5429 0ZM21.5429 11.416C24.3531 11.416 24.6864 11.4257 25.7968 11.4724C28.651 11.5917 29.9807 12.8346 30.1122 15.4363C30.1613 16.4567 30.1719 16.7613 30.1719 19.3437C30.1719 21.9261 30.1613 22.2324 30.1122 23.2512C29.9807 25.8513 28.6527 27.0973 25.7968 27.2166C24.6864 27.2618 24.3549 27.273 21.5429 27.273C18.7326 27.273 18.3993 27.2634 17.2906 27.2166C14.4312 27.0957 13.1068 25.848 12.9752 23.2512C12.9261 22.2324 12.9138 21.9261 12.9138 19.3437C12.9138 16.7613 12.9261 16.4551 12.9752 15.4363C13.105 12.8329 14.4347 11.5901 17.2906 11.4708C18.3993 11.4241 18.7326 11.416 21.5429 11.416ZM21.5429 9.67186C18.6835 9.67186 18.3274 9.68314 17.2029 9.7315C13.3787 9.8927 11.2561 11.8416 11.0807 15.3557C11.0298 16.389 11.0175 16.7178 11.0175 19.3437C11.0175 21.9712 11.0298 22.3001 11.0807 23.3318C11.2561 26.8442 13.3787 28.7964 17.2029 28.9576C18.3274 29.0043 18.6835 29.0156 21.5429 29.0156C24.4022 29.0156 24.7601 29.0043 25.8846 28.9576C29.7017 28.7964 31.8331 26.8475 32.005 23.3318C32.0559 22.3001 32.0682 21.9712 32.0682 19.3437C32.0682 16.7178 32.0559 16.389 32.005 15.3557C31.8331 11.8464 29.7088 9.89109 25.8846 9.7315C24.7601 9.68314 24.4022 9.67186 21.5429 9.67186ZM21.5429 14.3772C18.5589 14.3772 16.1381 16.6001 16.1381 19.3437C16.1381 22.0873 18.5589 24.3102 21.5429 24.3102C24.5268 24.3102 26.9476 22.0873 26.9476 19.3437C26.9476 16.6017 24.5268 14.3772 21.5429 14.3772ZM21.5429 22.5677C19.6044 22.5677 18.0344 21.125 18.0344 19.3437C18.0344 17.5641 19.6044 16.1198 21.5429 16.1198C23.4795 16.1198 25.0531 17.5625 25.0531 19.3437C25.0531 21.125 23.4795 22.5677 21.5429 22.5677ZM27.1599 13.0215C26.4634 13.0215 25.8968 13.5406 25.8968 14.1822C25.8968 14.8221 26.4617 15.3428 27.1599 15.3428C27.8581 15.3428 28.4247 14.8237 28.4247 14.1822C28.4247 13.5406 27.8598 13.0215 27.1599 13.0215Z" fill="white"/>
</g>
<defs>
<clipPath id="clip0_483_728">
<rect width="42.1013" height="38.6874" fill="white" transform="translate(0.492188)"/>
</clipPath>
</defs>
</svg>
