<svg width="42" height="38" viewBox="0 0 42 38" fill="none" xmlns="http://www.w3.org/2000/svg">
<g clip-path="url(#clip0_483_725)">
<path d="M20.7317 3.12161C30.2579 3.12161 38.0081 10.1234 38.0081 18.7296C38.0081 27.3359 30.2579 34.3377 20.7317 34.3377C11.2055 34.3377 3.45529 27.3359 3.45529 18.7296C3.45529 10.1234 11.2055 3.12161 20.7317 3.12161ZM20.7317 0C9.28263 0 0 8.38619 0 18.7296C0 29.0731 9.28263 37.4593 20.7317 37.4593C32.1808 37.4593 41.4634 29.0731 41.4634 18.7296C41.4634 8.38619 32.1808 0 20.7317 0ZM17.2764 12.4864C17.2764 13.3558 16.5042 14.0597 15.5488 14.0597C14.5934 14.0597 13.8211 13.3573 13.8211 12.4864C13.8211 11.6171 14.5934 10.9131 15.5488 10.9131C16.5042 10.9131 17.2764 11.6186 17.2764 12.4864ZM17.2764 15.608H13.8211V24.9728H17.2764V15.608ZM22.4594 15.608H19.0041V24.9728H22.4594V20.5074C22.4594 17.8197 25.9181 17.5715 25.9181 20.5074V24.9728H29.3699V19.7301C29.3699 14.6044 23.9659 14.7917 22.4594 17.314V15.608Z" fill="white"/>
</g>
<defs>
<clipPath id="clip0_483_725">
<rect width="41.4634" height="37.4593" fill="white"/>
</clipPath>
</defs>
</svg>
