<svg width="43" height="40" viewBox="0 0 43 40" fill="none" xmlns="http://www.w3.org/2000/svg">
<g clip-path="url(#clip0_483_730)">
<path fill-rule="evenodd" clip-rule="evenodd" d="M21.5681 0C10.1191 0 0.836426 8.79863 0.836426 19.6508C0.836426 30.5029 10.1191 39.3015 21.5681 39.3015C33.0172 39.3015 42.2999 30.5029 42.2999 19.6508C42.2999 8.79863 33.0172 0 21.5681 0ZM21.5681 3.27513C31.0944 3.27513 38.8446 10.6212 38.8446 19.6508C38.8446 28.6803 31.0944 36.0264 21.5681 36.0264C12.0419 36.0264 4.29171 28.6803 4.29171 19.6508C4.29171 10.6212 12.0419 3.27513 21.5681 3.27513ZM26.219 27.6568C26.4971 27.8451 26.8547 27.891 27.1743 27.7764C27.494 27.6617 27.7306 27.403 27.7997 27.0886C28.5513 23.7447 30.3722 15.2801 31.0546 12.2392C31.1065 12.0099 31.0218 11.7724 30.8318 11.6185C30.6417 11.4662 30.3774 11.422 30.1424 11.5039C26.5213 12.7746 15.3659 16.7408 10.8067 18.3407C10.5164 18.4422 10.3281 18.7059 10.3385 18.9957C10.3488 19.2856 10.5544 19.5361 10.8498 19.6196C12.8954 20.1993 15.5801 21.0067 15.5801 21.0067C15.5801 21.0067 16.8327 24.5978 17.4874 26.4237C17.5686 26.6513 17.7587 26.8331 18.0075 26.8937C18.258 26.9559 18.5223 26.8921 18.7089 26.725C19.7593 25.7851 21.3833 24.3326 21.3833 24.3326C21.3833 24.3326 24.4689 26.4761 26.219 27.6568ZM16.7083 20.5531L18.1595 25.0875L18.4808 22.2152C18.4808 22.2152 24.0836 17.4253 27.278 14.6939C27.373 14.6153 27.3851 14.481 27.3074 14.386C27.2296 14.2927 27.0897 14.2697 26.9826 14.3336C23.2802 16.5738 16.7083 20.5531 16.7083 20.5531Z" fill="white"/>
</g>
<defs>
<clipPath id="clip0_483_730">
<rect width="41.4634" height="39.3015" fill="white" transform="translate(0.836426)"/>
</clipPath>
</defs>
</svg>
