<svg width="42" height="40" viewBox="0 0 42 40" fill="none" xmlns="http://www.w3.org/2000/svg">
<path d="M40.5 19.6508C40.5 29.6005 31.9664 37.8015 21.2683 37.8015C10.5703 37.8015 2.03662 29.6005 2.03662 19.6508C2.03662 9.70104 10.5703 1.5 21.2683 1.5C31.9664 1.5 40.5 9.70104 40.5 19.6508Z" stroke="white" stroke-width="3"/>
<path d="M29.6206 12.1633C29.4673 12.087 29.3179 12.0033 29.1732 11.9126C28.7525 11.6448 28.3667 11.3293 28.0242 10.9728C27.1673 10.0289 26.8472 9.07136 26.7293 8.40092H26.7341C26.6356 7.84443 26.6763 7.48438 26.6825 7.48438H22.7794V22.0133C22.7794 22.2084 22.7794 22.4012 22.7709 22.5917C22.7709 22.6154 22.7685 22.6373 22.7671 22.6628C22.7671 22.6733 22.7671 22.6842 22.7648 22.6951C22.7648 22.6979 22.7648 22.7006 22.7648 22.7034C22.7236 23.2246 22.55 23.7282 22.2593 24.1698C21.9685 24.6113 21.5695 24.9773 21.0973 25.2356C20.6052 25.5051 20.0486 25.6465 19.4824 25.6458C17.6639 25.6458 16.1901 24.2183 16.1901 22.4554C16.1901 20.6925 17.6639 19.265 19.4824 19.265C19.8266 19.2647 20.1687 19.3169 20.496 19.4195L20.5008 15.5938C19.5072 15.4703 18.4978 15.5463 17.5362 15.8171C16.5747 16.0879 15.6819 16.5476 14.9142 17.1671C14.2414 17.7298 13.6759 18.4012 13.2429 19.1511C13.0782 19.4246 12.4565 20.5234 12.3813 22.3068C12.3339 23.3191 12.6497 24.3678 12.8002 24.8012V24.8104C12.8949 25.0656 13.2619 25.9366 13.8598 26.6708C14.342 27.2598 14.9116 27.7772 15.5505 28.2063V28.1972L15.5599 28.2063C17.4494 29.4423 19.5444 29.3612 19.5444 29.3612C19.9071 29.3471 21.1219 29.3612 22.5015 28.7318C24.0317 28.034 24.9028 26.9944 24.9028 26.9944C25.4593 26.3732 25.9019 25.6653 26.2114 24.9011C26.5646 24.0073 26.6825 22.9353 26.6825 22.5069V14.799C26.7298 14.8263 27.3604 15.2279 27.3604 15.2279C27.3604 15.2279 28.269 15.7885 29.6865 16.1535C30.7034 16.4133 32.0735 16.468 32.0735 16.468V12.738C31.5935 12.7881 30.6187 12.6423 29.6206 12.1633Z" fill="white"/>
</svg>
