<svg width="42" height="38" viewBox="0 0 42 38" fill="none" xmlns="http://www.w3.org/2000/svg">
<path d="M28.0365 11.0848C24.631 10.8726 17.0442 10.8741 13.6438 11.0848C9.96098 11.3158 9.52891 13.3573 9.5 18.7296C9.52891 24.0925 9.95928 26.1434 13.6455 26.3744C17.0459 26.5852 24.6327 26.5867 28.0382 26.3744C31.721 26.1434 32.1548 24.1004 32.1837 18.7296C32.1531 13.3667 31.7227 11.3158 28.0365 11.0848ZM17.4389 22.1977V15.2615L25.5665 18.7234L17.4389 22.1977ZM20.841 3.12161C30.2207 3.12161 37.8516 10.1234 37.8516 18.7296C37.8516 27.3359 30.2207 34.3377 20.841 34.3377C11.4613 34.3377 3.83035 27.3359 3.83035 18.7296C3.83035 10.1234 11.4613 3.12161 20.841 3.12161ZM20.841 0C9.56804 0 0.428223 8.38619 0.428223 18.7296C0.428223 29.0731 9.56804 37.4593 20.841 37.4593C32.1139 37.4593 41.2538 29.0731 41.2538 18.7296C41.2538 8.38619 32.1139 0 20.841 0V0Z" fill="white"/>
</svg>
